<?xml version="1.0" encoding="utf-8"?>
<!-- Generator: Adobe Illustrator 16.2.1, SVG Export Plug-In . SVG Version: 6.00 Build 0)  -->
<!DOCTYPE svg PUBLIC "-//W3C//DTD SVG 1.1//EN" "http://www.w3.org/Graphics/SVG/1.1/DTD/svg11.dtd">
<svg version="1.1" xmlns="http://www.w3.org/2000/svg" xmlns:xlink="http://www.w3.org/1999/xlink" x="0px" y="0px"
	 width="588.443px" height="129.744px" viewBox="0 0 588.443 129.744" enable-background="new 0 0 588.443 129.744"
	 xml:space="preserve">
<g id="Ebene_6" display="none">
</g>
<g id="Ebene_2">
</g>
<g id="Ebene_5">
</g>
<g id="Ebene_3_Kopie" display="none">
</g>
<g id="Ebene_7">
	<g>
		<g>
			<path fill="#000100" d="M43.466,33.132c0-2.939,0.088-3.696,0.88-5.124c0.968-1.764,3.344-3.107,5.632-3.107
				c2.199,0,4.576,1.344,5.544,3.107c0.792,1.428,0.88,2.1,0.88,5.124v46.956c0,4.368-2.464,7.056-6.512,7.056
				c-3.168,0-4.928-1.344-6.248-4.872c-2.729,3.612-6.16,5.124-11.176,5.124c-5.896,0-11.088-2.771-14.695-7.728
				c-3.08-4.284-4.928-9.744-4.928-14.7c0-11.76,9.239-21.84,20.151-21.84c3.872,0,6.952,1.092,10.472,3.864V33.132z M25.778,64.548
				c0,6.132,3.871,10.752,8.976,10.752c4.928,0,8.8-4.62,8.8-10.668c0-5.964-3.784-10.584-8.8-10.584
				C29.649,54.048,25.778,58.584,25.778,64.548z"/>
			<path fill="#000100" d="M107.528,79.836c0,4.284-2.729,7.308-6.512,7.308c-2.992,0-5.192-1.68-6.512-4.872
				c-3.256,3.864-5.896,5.124-10.648,5.124s-9.063-1.596-12.76-4.704c-5.104-4.284-7.655-10.164-7.655-17.64
				c0-6.804,2.112-11.928,6.776-16.296c3.871-3.696,8.447-5.628,13.463-5.628c4.576,0,7.304,1.26,11,4.872
				c1.408-3.192,3.432-4.62,6.424-4.62c3.607,0,6.424,2.771,6.424,6.3V79.836z M76.377,65.136c0,6.552,3.432,10.752,8.888,10.752
				c5.367,0,8.976-4.284,8.976-10.668s-3.608-10.584-8.976-10.584S76.377,58.836,76.377,65.136z"/>
			<path fill="#000100" d="M133.929,78.912c0,2.939-0.088,3.695-0.881,5.124c-0.968,1.764-3.344,3.107-5.543,3.107
				c-2.289,0-4.664-1.344-5.633-3.107c-0.791-1.429-0.879-2.101-0.879-5.124V55.14c-5.368,0-8.008-1.764-8.008-5.544
				c0-3.612,2.551-5.628,7.127-5.628h0.881v-6.384c0-2.94,0.088-3.696,0.879-5.124c0.969-1.764,3.256-3.024,5.633-3.024
				c2.287,0,4.575,1.261,5.543,3.024c0.793,1.428,0.881,2.1,0.881,5.124v6.384h2.375c2.816,0,3.521,0.084,4.928,0.756
				c1.672,0.84,2.904,2.772,2.904,4.788s-1.232,4.032-2.904,4.872c-1.407,0.672-2.023,0.756-4.928,0.756h-2.375V78.912z"/>
			<path fill="#000100" d="M189.983,79.836c0,4.284-2.729,7.308-6.512,7.308c-2.992,0-5.192-1.68-6.512-4.872
				c-3.256,3.864-5.896,5.124-10.648,5.124s-9.063-1.596-12.76-4.704c-5.104-4.284-7.655-10.164-7.655-17.64
				c0-6.804,2.112-11.928,6.776-16.296c3.871-3.696,8.447-5.628,13.463-5.628c4.576,0,7.304,1.26,11,4.872
				c1.408-3.192,3.432-4.62,6.424-4.62c3.607,0,6.424,2.771,6.424,6.3V79.836z M158.832,65.136c0,6.552,3.432,10.752,8.888,10.752
				c5.367,0,8.976-4.284,8.976-10.668s-3.608-10.584-8.976-10.584S158.832,58.836,158.832,65.136z"/>
			<path fill="#000100" d="M222.984,50.436c0-4.284,2.552-7.056,6.512-7.056c2.815,0,5.016,1.512,6.424,4.368
				c3.607-3.444,5.896-4.62,8.888-4.62c3.695,0,6.6,2.771,6.6,6.384c0,3.024-1.231,4.032-6.6,5.628
				c-7.04,2.185-8.888,3.864-8.888,8.232v15.54c0,2.939-0.088,3.695-0.88,5.124c-0.969,1.764-3.344,3.107-5.544,3.107
				c-2.288,0-4.664-1.344-5.632-3.107c-0.792-1.429-0.88-2.101-0.88-5.124V50.436z"/>
			<path fill="#000100" d="M297.263,79.836c0,4.284-2.733,7.308-6.52,7.308c-2.992,0-5.192-1.68-6.513-4.872
				c-3.256,3.864-5.896,5.124-10.647,5.124s-9.063-1.596-12.76-4.704c-5.104-4.284-7.655-10.164-7.655-17.64
				c0-6.804,2.111-11.928,6.775-16.296c3.872-3.696,8.448-5.628,13.464-5.628c4.576,0,7.304,1.26,11,4.872
				c1.407-3.192,3.432-4.62,6.424-4.62c3.609,0,6.432,2.771,6.432,6.3V79.836z M266.104,65.136c0,6.552,3.432,10.752,8.888,10.752
				c5.368,0,8.976-4.284,8.976-10.668s-3.607-10.584-8.976-10.584S266.104,58.836,266.104,65.136z"/>
			<path fill="#000100" d="M306.52,50.52c0-4.283,2.556-7.14,6.435-7.14c2.557,0,3.967,0.924,6.258,4.032
				c3.615-3.108,6.789-4.284,11.373-4.284c3.344,0,6.773,0.84,9.146,2.268c1.141,0.672,1.844,1.345,3.25,3.108
				c5.189-4.032,8.621-5.376,13.549-5.376c8.977,0,15.576,6.048,15.576,14.28v21.504c0,2.939-0.088,3.695-0.881,5.124
				c-0.967,1.764-3.344,3.107-5.543,3.107c-2.289,0-4.664-1.344-5.633-3.107c-0.791-1.429-0.879-2.101-0.879-5.124V60.18
				c0-3.864-2.641-6.384-6.6-6.384c-4.049,0-6.777,2.52-6.777,6.384v18.732c0,2.939-0.088,3.695-0.879,5.124
				c-0.969,1.764-3.34,3.107-5.535,3.107c-2.283,0-4.659-1.344-5.627-3.107c-0.792-1.429-0.881-2.101-0.881-5.124V61.355
				c0-4.872-2.377-7.56-6.695-7.56c-3.879,0-6.699,2.688-6.699,6.384v18.732c0,2.939-0.088,3.695-0.881,5.124
				c-0.971,1.764-3.35,3.107-5.555,3.107c-2.291,0-4.672-1.344-5.641-3.107c-0.794-1.429-0.882-2.101-0.882-5.124V50.52z"/>
			<path fill="#000100" d="M394.458,46.74c3.873-2.688,6.512-3.612,10.473-3.612c11.088,0,20.062,9.828,20.062,22.008
				c0,12.6-8.711,22.26-19.975,22.26c-4.84,0-8.008-1.428-10.736-4.872c-1.32,3.192-3.256,4.62-6.072,4.62
				c-3.959,0-6.688-2.771-6.688-6.552v-47.46c0-2.939,0.088-3.696,0.881-5.124c0.967-1.764,3.344-3.107,5.631-3.107
				c2.201,0,4.576,1.344,5.545,3.107c0.791,1.428,0.879,2.1,0.879,5.124V46.74z M394.37,65.136c0,6.216,3.783,10.752,8.977,10.752
				c4.928,0,8.799-4.704,8.799-10.668c0-5.88-3.871-10.584-8.799-10.584C398.241,54.636,394.37,59.172,394.37,65.136z"/>
			<path fill="#000100" d="M444.882,78.912c0,2.939-0.088,3.695-0.879,5.124c-0.969,1.764-3.344,3.107-5.545,3.107
				c-2.287,0-4.664-1.344-5.631-3.107c-0.793-1.429-0.881-2.101-0.881-5.124v-45.78c0-2.939,0.088-3.696,0.881-5.124
				c0.967-1.764,3.256-3.023,5.631-3.023c2.289,0,4.576,1.26,5.545,3.023c0.791,1.428,0.879,2.1,0.879,5.124V78.912z"/>
			<path fill="#000100" d="M465.825,69.336c1.936,4.956,5.279,7.308,10.207,7.308c3.08,0,3.961-0.252,10.736-3.443
				c0.703-0.337,1.76-0.589,2.816-0.589c2.639,0,5.191,2.437,5.191,5.04c0,4.956-9.416,9.744-19.359,9.744
				c-13.816,0-23.496-8.819-23.496-21.504c0-13.104,9.416-22.764,22.088-22.764c8.008,0,15.311,4.2,18.92,10.836
				c1.318,2.52,2.639,7.728,2.639,10.5c0,3.36-1.76,4.872-5.631,4.872H465.825z M482.808,60.936
				c-1.408-5.376-3.959-7.728-8.447-7.728c-4.4,0-7.127,2.352-8.975,7.728H482.808z"/>
			<path fill="#000100" d="M502.521,50.436c0-4.284,2.551-7.056,6.512-7.056c2.814,0,5.016,1.512,6.424,4.368
				c3.607-3.444,5.895-4.62,8.887-4.62c3.695,0,6.6,2.771,6.6,6.384c0,3.024-1.232,4.032-6.6,5.628
				c-7.039,2.185-8.887,3.864-8.887,8.232v15.54c0,2.939-0.088,3.695-0.881,5.124c-0.969,1.764-3.344,3.107-5.543,3.107
				c-2.289,0-4.664-1.344-5.633-3.107c-0.791-1.429-0.879-2.101-0.879-5.124V50.436z"/>
			<path fill="#000100" d="M566.673,51.611c0,2.772-2.465,5.377-5.018,5.377c-1.318,0-1.496-0.085-5.455-1.681
				c-1.936-0.84-3.607-1.26-4.928-1.26c-2.023,0-3.432,0.84-3.432,2.184c0,1.597,0.791,2.101,6.775,4.284
				c5.633,2.101,7.568,3.192,9.855,5.376c2.111,2.101,3.168,4.704,3.168,7.729c0,8.147-6.951,13.775-17.07,13.775
				c-8.801,0-16.545-4.2-16.545-8.903c0-2.856,2.641-5.545,5.369-5.545c1.584,0,1.584,0,6.688,2.185
				c2.111,0.924,3.783,1.344,5.191,1.344c2.111,0,3.783-1.26,3.783-2.855c0-1.429-1.055-2.185-5.016-3.612
				c-6.512-2.353-8.447-3.192-10.559-4.788c-2.816-2.1-4.137-4.872-4.137-8.736c0-7.644,7.127-13.355,16.631-13.355
				C559.808,43.128,566.673,47.076,566.673,51.611z"/>
		</g>
		<path fill="#000100" d="M444.882,98.639c0,2.939-0.088,3.695-0.879,5.124c-0.969,1.764-3.344,3.107-5.545,3.107
			c-2.287,0-4.664-1.344-5.631-3.107c-0.793-1.429-0.881-2.101-0.881-5.124v-45.78c0-2.939,0.088-3.696,0.881-5.124
			c0.967-1.764,3.256-3.023,5.631-3.023c2.289,0,4.576,1.26,5.545,3.023c0.791,1.428,0.879,2.1,0.879,5.124V98.639z"/>
		<path fill="#000100" d="M431.946,99.598c0,10.833,7.27,17.78,17.855,17.78c7.268,0,10.68-2.064,12.977-3.864
			c3.666-2.875,4.908-6.666,5.707-9.708c1.084-4.126,2.068-9.235-3.947-10.333c-4.344-0.793-5.887,1.421-6.844,4.291
			c-0.75,2.25-1.584,4.249-2.709,5.416c-1.646,1.709-3.299,1.834-5.5,1.834c-2.018,0-4.604-1.834-4.627-4.998
			c-0.021-2.625,0-3.066,0-4.543"/>
		<line fill="none" stroke="#FFFFFF" stroke-miterlimit="10" x1="430.823" y1="107.145" x2="446.005" y2="101.411"/>
		<line fill="none" stroke="#FFFFFF" stroke-miterlimit="10" x1="430.3" y1="97.693" x2="446.528" y2="97.606"/>
		<line fill="none" stroke="#FFFFFF" stroke-miterlimit="10" x1="455.972" y1="100.187" x2="471.022" y2="106.257"/>
		<line fill="none" stroke="#FFFFFF" stroke-miterlimit="10" x1="454.491" y1="102.113" x2="464.077" y2="115.207"/>
		<line fill="none" stroke="#FFFFFF" stroke-miterlimit="10" x1="451.126" y1="103.038" x2="451.253" y2="119.266"/>
		<line fill="none" stroke="#FFFFFF" stroke-miterlimit="10" x1="447.874" y1="103.61" x2="441.89" y2="118.694"/>
		<g>
			<g>
				<path fill="#FFFFFF" d="M435.235,97.312c-1.152-0.225-2.102-0.278-3.248,0c-1.834,0.447-2.412,2.885-1.102,4.179
					c1.416,1.399,3.236,1.617,5.146,1.412c2.523-0.271,4.898-0.525,7.455-0.513c-0.223-1.637-0.443-3.273-0.666-4.911
					c-1.119,0.348-2.279,0.556-3.354,1.039c-0.875,0.393-1.646,1.017-2.562,1.294c-2.033,0.616-4.025,0.36-5.848,1.669
					c-2.592,1.863-0.1,6.203,2.523,4.318c1.482-1.065,3.537-0.827,5.24-1.344c0.715-0.216,1.375-0.633,2.002-1.025
					c1.002-0.629,2.211-0.784,3.328-1.129c2.68-0.829,2.205-4.896-0.664-4.911c-1.814-0.009-3.613-0.044-5.418,0.166
					c-0.645,0.075-3.154,0.887-3.648,0.399c-0.367,1.393-0.736,2.785-1.104,4.179c0.195,0,0.393,0,0.588,0
					C437.054,102.749,438.397,97.931,435.235,97.312L435.235,97.312z"/>
			</g>
		</g>
		<g>
			<g>
				<path fill="#FFFFFF" d="M447.532,106.055c0.307,1.985,0.299,3.926,0.004,5.912c-0.107,0.722-0.268,1.438-0.48,2.136
					c-0.229,0.751-1.203,1.337-1.361,2.025c0.225-0.978,0.939-2.021,1.275-2.979c0.508-1.455,0.852-2.965,1.352-4.425
					c0.154-0.371,0.311-0.743,0.467-1.114c0.566-0.536,0.471-0.962-0.289-1.278c0.205,0.276,0.242,0.764,0.307,1.086
					c0.178,0.883,0.186,1.85-0.004,2.727c-0.26,1.208-0.316,2.188-0.1,3.413c0.07,0.396,0.688,1.949,0.125,1.492
					c-0.732-0.593-1.139-1.157-1.09-2.159c0.076-1.612-2.424-1.604-2.5,0c-0.113,2.368,1.613,4.229,3.713,5.102
					c2.541,1.057,2.473-3.188,2.297-4.412c-0.348-2.439,0.391-4.735-0.113-7.231c-0.297-1.477-1.627-3.015-3.156-1.865
					c-2.186,1.641-2.66,5.584-3.418,8.001c-0.592,1.885-2.523,4.076-0.352,5.624c1.918,1.365,4.164-1.09,4.934-2.557
					c1.527-2.912,1.283-7.036,0.801-10.16C449.696,103.801,447.288,104.479,447.532,106.055L447.532,106.055z"/>
			</g>
		</g>
		<g>
			<g>
				<path fill="#FFFFFF" d="M455.019,102.856c2.738,2.223,5.535,4.518,7.947,7.1c0.271,0.781,0.777,0.897,1.52,0.35
					c-0.523-0.258-1.004-0.582-1.443-0.973c-0.859-0.705-1.51-1.672-2.16-2.559c-1.127-1.537-3.102-3.198-3.062-5.219
					c-0.527,0.401-1.055,0.804-1.582,1.205c1.494,0.55,2.709,1.653,4.119,2.374c1.736,0.889,3.426,1.8,5.082,2.834
					c0.422-0.72,0.842-1.438,1.262-2.158c-1.111-0.671-2.414-1.016-3.33-1.972c-0.184,0.696-0.367,1.393-0.551,2.089
					c1.26-0.528,3.295,1.811,4.369,2.374c0.758,0.398,1.986-0.076,1.881-1.079c-0.18-1.719-1.713-3.974-3.713-2.802
					c-2.252,1.319-0.387,4.289-0.074,6.051c0.695-0.405,1.393-0.811,2.088-1.216c-1.408-1.717-2.645-3.538-4.25-5.084
					c-0.83-0.801-2.043-0.18-2.133,0.884c-0.203,2.402,1.998,4.698,1.211,7.002c0.762-0.1,1.521-0.199,2.283-0.299
					c-0.25-0.417-0.5-0.833-0.75-1.25c-0.828-1.38-2.99-0.124-2.158,1.262c0.25,0.417,0.5,0.833,0.75,1.25
					c0.58,0.968,1.939,0.709,2.285-0.299c0.963-2.815-1.352-4.951-1.121-7.666c-0.711,0.295-1.424,0.589-2.135,0.884
					c1.602,1.543,2.846,3.371,4.25,5.084c0.875,1.067,2.283-0.119,2.09-1.216c-0.098-0.552-0.264-1.046-0.455-1.572
					c0.006,0.016-0.738-1.687-0.668-1.013c0.627-0.359,1.254-0.72,1.881-1.079c-1.871-0.982-3.928-3.619-6.295-2.626
					c-0.852,0.356-1.264,1.347-0.553,2.089c1.086,1.134,2.52,1.568,3.836,2.362c1.387,0.837,2.625-1.308,1.262-2.158
					c-1.65-1.031-3.32-2.004-5.082-2.834c-1.648-0.777-2.988-1.991-4.717-2.626c-0.783-0.289-1.566,0.447-1.582,1.205
					c-0.057,2.996,2.594,5.422,4.277,7.657c0.92,1.221,3.711,4.581,5.643,3.449c4.137-2.423-7.115-10.487-8.453-11.573
					C455.548,100.082,453.767,101.84,455.019,102.856L455.019,102.856z"/>
			</g>
		</g>
		<g>
			<g>
				<path fill="#FFFFFF" d="M446.569,110.14c0.113,1.906-0.902,3.81-1.912,5.369c0.721,0.421,1.439,0.841,2.158,1.262
					c1.227-1.969,2.082-4.048,2.807-6.245c0.668-2.027,1.838-4.149,1.865-6.303c0.016-1.275-1.686-1.664-2.33-0.631
					c-0.357,0.575-0.643,1.175-1,1.75c-0.854,1.373,1.309,2.627,2.158,1.262c0.359-0.575,0.643-1.175,1-1.75
					c-0.775-0.21-1.553-0.421-2.328-0.631c-0.021,1.764-1.242,3.938-1.775,5.638c-0.629,1.997-1.447,3.871-2.555,5.648
					c-0.857,1.376,1.287,2.608,2.158,1.262c1.234-1.907,2.391-4.307,2.254-6.631C448.976,108.537,446.476,108.528,446.569,110.14
					L446.569,110.14z"/>
			</g>
		</g>
		<g>
			<g>
				<path fill="#FFFFFF" d="M460.353,104.189c0.764,0.624,1.109,1.117,1.555,1.997c0.309,0.607,1.15,0.777,1.711,0.448
					c0.613-0.359,0.756-1.103,0.447-1.71c-0.488-0.965-1.104-1.816-1.945-2.503c-0.527-0.431-1.25-0.518-1.768,0
					C459.907,102.867,459.825,103.758,460.353,104.189L460.353,104.189z"/>
			</g>
		</g>
	</g>
</g>
</svg>
