<?xml version="1.0" encoding="utf-8"?>
<!-- Generator: Adobe Illustrator 16.2.1, SVG Export Plug-In . SVG Version: 6.00 Build 0)  -->
<!DOCTYPE svg PUBLIC "-//W3C//DTD SVG 1.1//EN" "http://www.w3.org/Graphics/SVG/1.1/DTD/svg11.dtd">
<svg version="1.1" xmlns="http://www.w3.org/2000/svg" xmlns:xlink="http://www.w3.org/1999/xlink" x="0px" y="0px"
	 width="504.961px" height="436.139px" viewBox="0 0 504.961 436.139" enable-background="new 0 0 504.961 436.139"
	 xml:space="preserve">
<g id="Ebene_6" display="none">
</g>
<g id="Ebene_2">
	<circle fill="#E20717" cx="413.756" cy="360.229" r="36.914"/>
	<circle fill="#059839" cx="114.545" cy="274.469" r="47.415"/>
	<circle fill="#059839" cx="203.301" cy="390.317" r="39.122"/>
	<path fill="#294697" d="M264.07,351.196c0,20.121-16.311,36.431-36.432,36.431c-20.12,0-36.432-16.31-36.432-36.431
		c0-20.124,16.312-36.437,36.432-36.437C247.76,314.76,264.07,331.072,264.07,351.196z"/>
	<circle fill="#FFDD09" cx="120.677" cy="375.158" r="51.844"/>
	<path fill="#FFDD09" d="M154.094,129.871c0,18.457-14.961,33.418-33.417,33.418S87.26,148.328,87.26,129.871
		c0-18.448,14.961-33.409,33.417-33.409S154.094,111.423,154.094,129.871z"/>
	<circle fill="#294697" cx="114.545" cy="193.615" r="49.634"/>
	<circle fill="#294697" cx="175.01" cy="59.052" r="33.874"/>
	<circle fill="#FFDD09" cx="290.621" cy="54.375" r="51.842"/>
	<path fill="#E20717" d="M288.855,89.099c0,32.308-26.195,58.503-58.51,58.503c-32.313,0-58.51-26.195-58.51-58.503
		c0-32.314,26.196-58.51,58.51-58.51C262.66,30.589,288.855,56.784,288.855,89.099z"/>
	<path fill="#059839" d="M402.85,92.428c0,28.627-23.211,51.836-51.844,51.836s-51.83-23.209-51.83-51.836
		c0-28.633,23.197-51.843,51.83-51.843S402.85,63.795,402.85,92.428z"/>
	<path fill="#E20717" d="M438.559,140.62c2.104,19.222-11.771,36.507-30.992,38.611s-36.508-11.771-38.611-30.992
		c-2.105-19.222,11.771-36.5,30.992-38.604S436.455,121.399,438.559,140.62z"/>
	<circle fill="#FFDD09" cx="420.244" cy="194.897" r="41.676"/>
	<circle fill="#059839" cx="423.644" cy="257.242" r="49.149"/>
	<path fill="#294697" d="M420.42,297.604c0,28.678-23.24,51.923-51.914,51.923c-28.672,0-51.914-23.245-51.914-51.923
		c0-28.672,23.242-51.914,51.914-51.914C397.18,245.689,420.42,268.932,420.42,297.604z"/>
	<path fill-rule="evenodd" clip-rule="evenodd" d="M128.034,336.732c0,2.182-0.069,4.406,0.017,6.629
		c0.146,3.74,0.281,7.484,0.624,11.209c0.372,4.037,1.003,8.055,1.453,12.09c0.085,0.762-0.15,1.561-0.237,2.342
		c-0.668-0.164-1.377-0.234-1.994-0.508c-6.51-2.877-13.164-4.691-20.438-4.361c-4.112,0.188-8.273-0.748-12.414-1.17
		c-0.846-0.086-1.701-0.236-2.54-0.178c-4.181,0.283-7.636-1.709-10.977-3.715c-3.438-2.064-7.147-3.518-10.907-4.527
		c-4.401-1.182-9.053-1.43-13.574-0.012c-5.094,1.592-10.145,3.342-15.283,4.771c-4.774,1.326-9.703,1.439-14.65,1.248
		c-2.551-0.098-5.117,0.211-7.674,0.186c-1.455-0.012-3.035-0.021-4.336-0.566c-2.993-1.252-3.465-2.867-1.551-5.494
		c1.23-1.688,2.801-3.205,4.451-4.5c4.612-3.629,10.315-4.406,15.805-5.641c4.583-1.033,9.213-1.863,13.82-2.785
		c0.209-0.043,0.422-0.094,0.616-0.18c2.577-1.158,5.431-2.352,5.558-5.592c0.128-3.305-1.631-6.033-4.607-7.547
		c-6.134-3.119-12.586-5.131-19.462-6.185c-6.419-0.983-12.7-2.892-19.016-4.501c-1.946-0.496-3.378-1.824-4.151-3.74
		c-0.758-1.879-1.6-3.732-2.205-5.66c-0.791-2.517,0.345-4.262,2.979-4.312c1.996-0.036,4.097,0.171,5.983,0.784
		c3.955,1.284,7.803,2.908,11.694,4.391c2.616,0.996,5.284,1.452,8.118,1.605c6.61,0.358,13.199,1.11,19.795,1.709
		c1.484,0.134,2.967,0.288,5.08,0.493c-1.976-3.592-4.113-6.446-6.926-8.678c-4.357-3.456-8.854-6.741-13.34-10.036
		c-2.412-1.771-5.002-3.312-7.367-5.145c-4.18-3.238-6.208-7.711-7.121-12.9c2.583-1.383,4.77-1.226,6.887,0.612
		c1.985,1.724,4.172,2.783,6.994,2.67c1.338-0.054,2.951,0.688,4.037,1.567c2.822,2.285,5.594,4.684,8.075,7.329
		c4.431,4.722,9.569,8.549,14.761,12.324c1.984,1.442,4.342,1.673,6.732,1.292c3.037-0.485,4.156-2.439,2.492-4.996
		c-1.855-2.854-3.799-5.834-6.34-8.018c-4.961-4.262-8.07-9.562-10.641-15.414c-1.498-3.413-3.602-6.558-5.355-9.863
		c-0.365-0.688-0.793-1.91-0.482-2.263c0.531-0.604,1.686-1.087,2.463-0.955c1.548,0.265,3.197,0.71,4.484,1.563
		c3.912,2.596,7.756,5.314,11.465,8.191c3.014,2.34,4.738,5.758,6.696,8.95c3.685,6.012,6.526,12.547,11.112,17.999
		c2.668,3.17,5.287,6.4,9.014,8.948c0.289-0.854,0.65-1.495,0.703-2.159c0.508-6.402,0.965-12.807,1.431-19.211
		c0.17-2.344,0.313-4.688,0.491-7.031c0.041-0.533,0.068-1.111,0.298-1.571c0.681-1.363,0.54-3.426,2.591-3.704
		c1.776-0.242,2.503,1.291,3.459,2.439c4.521,5.429,5.877,11.616,5.108,18.573c-1.45,13.124,1.515,25.081,10.173,35.343
		c1.787,2.119,3.568,4.248,5.463,6.268C125.969,335.783,126.926,336.09,128.034,336.732z"/>
	<path fill-rule="evenodd" clip-rule="evenodd" d="M399.104,367.4c-2.135-4.693-5.764-8.057-9.74-10.922
		c-3.912-2.811-8.219-5.074-12.521-7.68c1.033-1.576,1.873-2.877,2.734-4.168c4.348-6.539,8.326-13.257,10.754-20.799
		c0.928-2.875,2.301-5.606,3.195-8.49c2.441-7.867,3.057-15.957,2.436-24.139c-0.598-7.813-1.168-15.611,0.838-23.325
		c0.156-0.604,0.254-1.238,0.494-1.808c0.703-1.653,2.146-2.199,3.508-1.073c2.205,1.825,4.508,3.466,5.014,6.82
		c0.4,2.654,1.201,5.237,1.262,7.985c0.039,1.858,0.465,3.732,0.908,5.552c0.953,3.893,1.418,7.786,0.836,11.792
		c-0.223,1.539-0.139,3.127-0.143,4.692c-0.004,1.033,0.418,1.747,1.525,2.065c4.727,1.358,8.727-1.098,10.703-3.926
		c1.992-2.852,2.512-6.143,3.381-9.354c1.252-4.631,2.355-9.314,3.875-13.858c1.998-5.968,5.258-10.989,10.914-14.395
		c2.998-1.802,5.396-4.591,8.104-6.889c1.08-0.915,2.268-1.704,3.314-2.485c2.383,1.689,2.607,3.801,1.92,5.836
		c-0.619,1.829-1.568,3.699-2.85,5.12c-3.158,3.499-5.174,7.393-6.238,12.027c-0.928,4.03-2.686,7.868-4.061,11.796
		c-0.928,2.658-1.857,5.316-2.73,7.992c-0.287,0.885-0.674,1.872-0.533,2.734c0.25,1.542-0.625,3.752,1.406,4.439
		c2.17,0.732,4.408,0.841,6.424-1.066c2.695-2.555,4.676-5.592,6.699-8.634c1.564-2.347,3.115-4.711,4.816-6.958
		c3.787-5.009,8.99-7.941,14.777-10.112c2.506-0.938,4.844-2.378,7.15-3.766c0.969-0.584,1.646-1.676,2.998-1.077
		c1.119,0.495,1.965,2.165,1.699,3.767c-0.463,2.807-1.172,5.599-3.17,7.73c-2.35,2.509-4.848,4.887-7.369,7.226
		c-4.439,4.117-9.023,8.08-13.396,12.266c-2.637,2.521-3.65,6.059-4.771,9.396c-0.73,2.174,0.875,4.26,3.174,4.934
		c3.709,1.09,7.02-0.108,10.223-1.785c4.16-2.18,8.262-4.473,12.43-6.633c4.867-2.518,10.193-2.918,15.531-3.077
		c1.738-0.052,2.525,1.018,1.994,2.699c-0.363,1.153-0.998,2.378-1.871,3.183c-4.438,4.105-8.969,8.113-13.535,12.072
		c-0.762,0.66-1.82,1.115-2.816,1.34c-6.098,1.375-12.205,2.711-18.334,3.943c-2.283,0.459-4.457,1-6.336,2.473
		c-3.094,2.428-3.322,5.068-0.188,7.484c4.441,3.428,9.566,5.52,15.096,6.469c3.385,0.58,6.838,0.758,10.207,1.398
		c3.053,0.58,6.135,1.285,9.025,2.4c3.375,1.297,3.807,3.273,2.084,6.51c-0.998,1.873-2.295,2.949-4.553,3.225
		c-3.51,0.426-6.953,1.363-10.449,1.938c-3.143,0.516-6.301,0.213-9.266-0.906c-3.9-1.469-7.666-3.297-11.553-4.811
		c-3.588-1.4-7.186-2.969-10.924-3.738c-2.664-0.543-5.652-0.242-8.354,0.336c-3.758,0.807-7.314,2.291-10.682,4.326
		c-4.529,2.74-8.855,5.846-13.973,7.596C406.58,364.324,403.43,366.805,399.104,367.4z"/>
	<path fill="#E20717" d="M231.348,328.643c0,33.515-27.164,60.678-60.672,60.678c-33.507,0-60.67-27.163-60.67-60.678
		c0-33.508,27.163-60.672,60.67-60.672C204.184,267.971,231.348,295.135,231.348,328.643z"/>
	<path fill="#059839" d="M409.031,373.742c0,24.95-20.227,45.176-45.176,45.176c-24.951,0-45.178-20.226-45.178-45.176
		c0-24.951,20.227-45.184,45.178-45.184C388.805,328.559,409.031,348.791,409.031,373.742z"/>
	<path fill="#FFDD09" d="M363.855,356.12c0,32.314-26.197,58.51-58.502,58.51c-32.318,0-58.515-26.195-58.515-58.51
		c0-32.319,26.196-58.515,58.515-58.515C337.658,297.605,363.855,323.801,363.855,356.12z"/>
</g>
<g id="Ebene_5">
	<g>
		<g>
			<path fill="#FFFFFF" d="M162.344,203.112c10.25-1.366,18.369-5.155,26.595-11.341c-1.01-1.309-2.02-2.618-3.029-3.927
				c-8.873,6.97-15.867,17.759-19.31,28.437c-0.993,3.077,3.836,4.385,4.82,1.328c3.196-9.91,9.811-19.777,18.024-26.229
				c2.225-1.747-0.766-5.629-3.029-3.927c-7.405,5.57-14.783,9.42-24.071,10.659C159.195,198.532,159.154,203.537,162.344,203.112
				L162.344,203.112z"/>
		</g>
	</g>
	<g>
		<g>
			<path fill="#FFFFFF" d="M144.289,192.289c-2.089,6.998-3.575,14.398-6.739,21.014c7.616,3.211,15.231,6.422,22.847,9.633
				c2.408-8.631,4.017-17.457,6.469-26.074c2.189-7.688,5.905-14.695,9.389-21.851c3.316-6.812,6.855-13.511,11.076-19.81
				c3.477-5.188,8.449-10.176,13.988-13.129c-5.7-1.494-11.401-2.99-17.102-4.484c-0.041-0.072-0.008-0.367,0.017-0.536
				c-0.237,1.648-0.677,3.245-1.106,4.851c-0.904,3.372-2.18,6.645-3.479,9.879c-2.444,6.092-5.512,11.943-8.115,17.971
				c-5.951,13.777-8.734,28.5-13.91,42.537c-4.279,11.608,12.914,21.537,20.893,12.162c9.143-10.742,21.047-18.92,31.344-28.504
				c11.08-10.312,22.687-20.041,32.989-31.163c10.927-11.794-6.195-29.089-17.678-17.678c-0.71,0.706-2.419,1.761,0.519-0.286
				c-0.564,0.395-1.188,0.701-1.802,1.01c3.591-1.807-0.837,0.139-2.019,0.434c-0.944,0.235-6.339,1.07-2.494,0.564
				c-2.076,0.273-4.166,0.451-6.252,0.632c-8.61,0.747-17.248,1.255-25.21,4.883c-8.443,3.847-13.55,12.901-12.583,22.116
				c1.343,12.779,8.144,24.794,20.696,29.161c11.536,4.013,24.068-2.508,34.042-7.548c-0.188,0.082-0.375,0.165-0.562,0.248
				c3.543-0.785,1.594-1.596-5.844-2.432c-0.646-0.501-1.029-1.373-1.069-2.168c-0.169-3.311,1.937-4.852,0.63-2.869
				c2.004-3.041,1.434-1.826,0.521-1.002c3.177-2.869-0.049-0.131-1.224,0.516c-0.929,0.511-6.17,2.812-2.664,1.348
				c-7.017,2.932-14.451,5.174-21.034,9.039c-7.596,4.462-14.011,13.453-10.413,22.586c4.586,11.645,16.99,18.158,28.973,19.28
				c5.86,0.55,11.686-0.159,17.547-0.323c-0.223,0.006,4.838,0.252,2.597-0.107c1.272,0.204,2.501,0.652,3.712,1.078
				c-1.82-0.641,1.879,1.293,1.803,1.244c-0.875-0.564-0.699-0.994-1.083-1.908c4.019-5.273,8.036-10.549,12.054-15.822
				c-2.495,0.27,1.143,0.336,1.748,0.674c2.229,1.24-0.273-0.473-0.746-0.992c1.602,1.759-0.775-1.193-0.887-1.361
				c-0.837-1.279-1.572-2.625-2.309-3.965c-2.424-4.412-5.34-9.18-5.682-12.215c-0.486-4.303-2.71,7.256-6.254,8.644
				c1.818-0.712,3.671-1.337,5.539-1.903c3.269-0.99,6.652-1.447,10.039-1.78c3.707-0.364,7.441-0.472,11.14-0.92
				c1.108-0.149,2.216-0.298,3.323-0.446c1.521-0.23,1.744-0.268,0.669-0.109c3.636-0.411-3.092-1.278-3.888-3.867
				c-0.855-2.779-0.394,1.799,0.008-0.792c-0.07,0.45-1.328,3.853-0.158,1.299c-0.74,1.614,0.657-0.259,2.557-1.036
				c0.721-0.215,1.447-0.248,2.182-0.102c-0.844-0.221-1.676-0.482-2.494-0.785c-7.854-2.682-15.446-5.133-23.749-6.055
				c-6.787-0.755-13.507-0.23-20.23,0.824c-8.886,1.393-14.204,7.807-15.308,16.389c-0.995,7.739,8.793,14.679,15.823,12.053
				c19.04-7.111,25.393-30.398,28.349-48.59c0.826-5.092,1.585-10.181,2.777-15.205c0.271-1.09,0.57-2.172,0.898-3.245
				c-0.123,0.424,1.734-4.364,0.984-2.815c0.391-0.74,0.817-1.457,1.282-2.152c2.07-3.279-1.342,1.476,1.193-1.574
				c6.978-8.396,13.854-15.883,14.026-27.471c0.061-4.114-2.359-8.943-6.191-10.788c-15.025-7.245-30.947-6.457-45.942,0.383
				c-6.52,2.97-12.118,8.231-17.345,13.045c-5.9,5.435-10.738,11.767-13.409,19.37c-3.785,10.776,9.355,19.184,18.362,14.117
				c3.19-1.795,5.984-4.162,8.396-6.9c0.814-0.926,1.591-1.885,2.399-2.816c0.541-0.613,1.113-1.197,1.714-1.752
				c-0.923,0.662-0.737,0.59,0.558-0.217c-1.648,0.947,2.945-0.536,2.715-0.482c1.553-0.361,3.296-0.691,4.77-0.871
				c4.525-0.551,9.1-0.665,13.653-0.68c14.542-0.05,28.985,2.097,43.495,2.736c1.232,0.055,2.463,0.144,3.695,0.238
				c1.547,0.17,1.638,0.158,0.271-0.033c0.729,0.109,1.454,0.244,2.174,0.406c1.072,0.223,3.253,1.539,0.338-0.035
				c-3.423-1.85-4.683-7.105-2.777-10.447c1.465-2.564,0.303-0.584-0.506,0.138c2.159-1.927-1.33,0.789-1.859,1.117
				c-2.354,1.456-4.85,2.686-7.311,3.946c-14.864,7.617-29.842,15.125-42.872,25.686c7.112,2.947,14.226,5.893,21.339,8.84
				c-0.256-2.828-0.883,2.773-0.121-0.182c-0.712,2.762,0.604-0.889,1.147-1.721c0.827-1.164,0.915-1.283,0.263-0.357
				c0.55-0.652,1.115-1.289,1.696-1.914c1.175-1.293,2.438-2.506,3.698-3.716c4.545-4.364,9.325-8.343,13.71-12.876
				c0.317-0.299,0.634-0.599,0.951-0.898c-2.28,2.347-5.396,2.402-9.351,0.169c-1.541-1.493-1.509-3.124-1.229-5.089
				c-0.126,0.647-0.3,1.281-0.521,1.902c0.613-1.376,0.596-1.4-0.053-0.074c-0.699,1.371-1.58,2.655-2.438,3.931
				c-3.728,5.537-7.923,10.335-9.974,16.835c-1.824,5.787,1.332,10.787,5.745,14.117c11.144,8.406,25.519,7.058,36.687-0.5
				c10.061-6.823,16.959-16.641,24.045-26.301c7.299-9.951,17.623-15.752,27.844-22.252c2.662-1.693-2.191,0.219-3.35-1.287
				c1.217,1.58,2.363,4.019,2.5,5.171c0.592,4.96-1.48,9.701-3.193,14.624c-1.686,4.846-3.033,8.053-5.971,13
				c-0.084,0.142-2.426,3.426-0.809,1.391c-0.658,0.828-1.42,1.551-2.199,2.26c2.242-2.043,0.34-0.453-0.449-0.052
				c2.764-1.403-1.338,0.275-2.035,0.456c-0.277,0.072-4.018,0.661-1.354,0.348c-1.193,0.141-2.395,0.152-3.594,0.16
				c-0.484,0.004-4.068-0.565-1.211-0.035c-0.773-0.143-3.416-1.484-0.838-0.148c0.342,0.285,0.686,0.57,1.027,0.855
				c-0.975-1.057-0.842-0.863,0.398,0.578c1.52,2.354,0.447,1.195,0.15-0.119c0.727,3.225,0.215,0.616,0.242-0.339
				c0.123-1.415,0.096-1.312-0.08,0.306c0.129-0.707,0.283-1.408,0.461-2.105c1.801-7.577,6.266-14.91,12.062-19.972
				c-2.543,2.222,0.586,0.341-1.775,1.124c-0.307,0.01-0.613,0.021-0.922,0.033c3.629,0.152,1.98-1.17-4.941-3.965
				c-1.426-1.969-1.49-4.723-0.496-6.803c-0.457,0.957-1.113,1.829-1.727,2.689c1.527-2.145-0.75,0.754-0.932,0.959
				c-0.709,0.808-1.439,1.598-2.16,2.396c-1.969,2.178-3.828,4.464-5.238,7.042c-4.529,8.287-4.039,18.597,4.52,24.152
				c5.084,3.3,11.588,3.873,17.445,4.447c2.15,0.211,4.33,0.369,6.475,0.099c1.891-0.238,3.717-0.489,5.574-0.867
				c0.781-0.159,3.996-0.517,0.26-0.177c-2.127,0.194-4.504-1.301-5.684-2.924c0.541,0.744,1.385,2.117,1.695,2.941
				c0.576,1.527,1.068,3.242,0.418,4.711c7.615,0.996,15.23,1.991,22.846,2.986c-3.584-11.977-0.953-25.036-0.553-37.344
				c0.18-5.531-3.947-10.615-9.178-12.054c-6.951-1.912-13.072,2.325-15.377,8.731c-4.965,13.797-8.744,25.264-15.807,37.606
				c-6.312,11.029-14.797,19.994-26.463,24.662c4.055,1.071,8.109,2.144,12.162,3.215c1.824,1.862-0.24-1.413,0.562,1.03
				c-0.309-1.424-0.336-1.443-0.086-0.056c-0.045-0.808-0.051-1.616-0.016-2.426c0.037-0.837,0.104-1.671,0.201-2.501
				c-0.145,1.219-0.094,1.068,0.15-0.451c0.297-1.609,0.699-3.201,1.098-4.788c1.277-5.108,3.238-10.017,4.352-15.162
				c2.188-10.108-1.051-18.57-10.943-22.649c-7.244-2.986-15.496-1.158-22.354,1.836c-7.587,3.308-12.079,12.533-14.847,19.736
				c-2.759,7.176-3.452,15.561-3.452,23.193c0,4.486,0,8.974,0,13.461c0,4.325,0.476,8.346-0.646,11.78
				c0.769-2.354-0.773,1.626-0.794,1.67c-1.132,2.456-2.124,4.976-3.066,7.509c-1.607,4.315-2.338,8.941-3.714,13.334
				c6.964-1.84,13.929-3.678,20.894-5.517c-1.359-1.493,2.002,2.813,0.549,0.679c-0.646-0.949-1.227-1.944-1.817-2.928
				c-1.454-2.42-2.863-4.865-4.356-7.262c-3.338-5.359-7.525-11.486-13.951-13.324c-9.24-2.645-16.842,4.225-19.879,12.354
				c-2.246,6.016-2.035,12.965-1.459,19.268c0.256,2.794,0.609,5.604,1.021,8.375c-0.679-4.574-0.176-0.396-0.124,0.609
				c0.072,1.442,0.136,2.884,0.221,4.325c0.371,6.343,1.027,14.925,6.451,19.249c7.045,5.615,15.988,5.611,23.191,0.184
				c2.986-2.25,5.545-4.625,7.953-7.475c1.346-1.59,2.604-3.275,3.873-4.924c0.558-0.725,3.086-3.961,0.332-0.452
				c-6.969-1.839-13.934-3.677-20.897-5.517c0.292,1.619,0.332,1.832,0.119,0.637c0.063,0.793,0.087,1.586,0.069,2.38
				c-0.104,1.528-0.075,1.485,0.084-0.126c-0.553,3.069,1.274-2.014-0.104,0.619c-0.748,1.153-0.661,1.058,0.262-0.287
				c-1.004,0.92-0.918,0.893,0.256-0.08c-0.593,0.391-1.207,0.742-1.843,1.057c2.319-1.238-1.173,0.326-1.493,0.422
				c-3.06,0.926-7.207,1.992-10.32,0.597c-4.734-2.122-8.934-5.412-12.941-8.653c-13.068-10.566-22.294-36.775-43.358-32.273
				c3.211,7.615,6.421,15.231,9.632,22.848c6.736-4.803,13.737-9.389,21.809-11.493c7.869-2.052,16.172-2.11,24.221-2.944
				c9.082-0.939,18.059-1.508,27.191-1.794c9.788-0.306,19.031,1.229,28.791-0.509c8.107-1.443,11.213-11.867,7.469-18.363
				c-5.982-10.385-18.35-15.029-29.468-17.459c-11.753-2.566-24.471-3.436-36.311-0.952c-11.388,2.39-11.245,17.216-2.986,22.847
				c6.136,4.184,14.007,3.505,21.106,4.064c7.731,0.609,15.486,0.918,23.242,1.271c6.947,0.318,13.896,0.604,20.848,0.962
				c3.707,0.19,7.41,0.446,11.109,0.743c0.836,0.066,1.744-0.064,2.58-0.087c2.773-0.076-1.049-0.221-1.605-0.626
				c-1.496-1.494-2.99-2.988-4.484-4.484c0.127,0.225,0.256,0.448,0.383,0.672c-0.568-2.103-1.137-4.205-1.707-6.309
				c0.078-0.264,0.156-0.526,0.234-0.789c1.07-1.839,2.143-3.678,3.215-5.516c0.799-0.473,1.596-0.943,2.395-1.416
				c4.707,1.916,9.412,3.83,14.117,5.745c-2.055-4.353-3.332-11.54-3.787-16.995c-0.115-1.406-0.148-2.809-0.307-4.211
				c-0.102-0.863-0.164-1.729-0.189-2.598c0.23-2.747-0.326-1.874-1.672,2.618c-3.949,4.978-15.33-4.354-13.826-1.587
				c-1.605-2.955-0.176,0.361,0.018,1.383c-0.615-3.251-0.053,1.671-0.123,2.75c-0.229,3.529-1.736,7.312-2.189,10.9
				c-0.588,4.643,0.223,9.191,0.906,13.788c0.504,3.386,0.236,4.96-1.01,8.271c-3.631,9.646,6.928,17.05,15.377,15.377
				c2.156-0.428,4.238-1,6.332-1.667c-4.055-6.964-8.107-13.929-12.162-20.893c-10.396,9.14-21.285,17.671-29.596,28.856
				c-3.644,4.898-6.555,10.346-10.35,15.137c-3.541,4.473-8.091,8.068-12.11,12.094c-0.921,0.922-1.859,1.824-2.808,2.719
				c0.023-0.021-3.192,2.646-1.4,1.306c-0.992,0.741-2.068,1.339-3.156,1.921c2.268-1.215-2.241,0.224,0.497-0.078
				c-2.989,0.329,1.243,0.613-1.946-0.172c0.053,0.014-3.902-1.543-2.044-0.663c-3.036-1.438-2.679-1.452-4.542-3.354
				c-0.676-0.69-1.659-2.263-2.822-4.693c0.883,1.846-1.051-5.665-0.812-3.462c-0.674-6.225,0.807-9.012,2.745-15.64
				c8.469-28.961,16.974-58.023,18.638-88.333c0.835-15.194-1.471-30.167-3.086-45.23c-0.716-6.673-1.519-13.477-1.074-20.19
				c0.398-6.022,1.113-11.707-0.236-17.693c-1.467-6.507-9.091-10.659-15.377-8.731c-3.795,1.165-7.332,3.01-11.176,2.969
				c-4.589-0.049-9.257-1.523-13.809-2.08c-4.527-0.554-8.982-0.419-13.274,1.288c-4.337,1.725-6.61,3.295-10.074,3.823
				c-6.747,1.03-10.376,9.397-8.731,15.372c1.965,7.136,8.647,9.755,15.377,8.729c4.248-0.648,8.086-2.645,11.896-4.545
				c-1.038,0.39-0.836,0.345,0.605-0.134c-1.133,0.088-0.853,0.131,0.842,0.125c1.752,0.068,3.439,0.454,5.16,0.775
				c5.115,0.955,10.291,1.857,15.507,1.559c5.109-0.294,9.518-2.307,14.323-3.78c-5.126-2.907-10.251-5.813-15.377-8.724
				c-0.67-2.971,0.008,0.607,0.017,1.242c0.019,1.378-0.104,2.762-0.198,4.133c-0.191,2.768-0.498,5.525-0.621,8.303
				c-0.34,7.666,0.984,15.629,1.848,23.23c1.794,15.812,3.3,31.175,1.927,47.096c-1.314,15.246-4.962,30.279-8.89,45.033
				c-3.951,14.844-9.861,29.637-11.877,44.885c-3.519,26.608,25.635,55.019,51.33,39.31c4.932-3.011,8.984-7.343,13.051-11.375
				c5.17-5.132,9.977-9.881,14.297-15.839c3.588-4.951,6.494-10.455,10.521-15.062c5.023-5.75,10.916-10.744,16.691-15.711
				c2.604-2.24,5.215-4.469,7.793-6.735c9.422-8.281-0.479-24.618-12.162-20.893c-2.094,0.668-4.176,1.24-6.332,1.667
				c5.125,5.125,10.25,10.252,15.377,15.377c2.482-6.598,2.291-12.947,1.27-19.812c-0.934-6.28,0.84-11.244,1.625-17.463
				c1.16-9.185-0.875-19.666-8.756-25.339c-4.789-3.448-11.562-2.829-16.369,0.157c-6.541,4.063-9.289,11.575-8.912,19.014
				c0.611,12.115,2.42,24.058,7.629,35.096c2.523,5.348,8.916,6.646,14.115,5.744c13.582-2.355,16.551-20.146,5.936-27.852
				c-3.115-2.262-7.279-2.742-11.012-2.788c-3.953-0.048-7.873-0.319-11.83-0.554c-9.488-0.562-18.982-0.891-28.486-1.328
				c-5.176-0.238-10.348-0.513-15.516-0.865c-2.602-0.178-5.198-0.402-7.795-0.641c-1.167-0.227-2.337-0.254-3.51-0.078
				c2.494,1.107,2.784,1.082,0.869-0.074c-0.996,7.615-1.99,15.23-2.986,22.847c0.537-0.12,1.076-0.226,1.619-0.317
				c-3.524,0.642-0.368,0.062,0.352-0.006c2.117-0.198,4.25-0.225,6.375-0.222c2.354,0.003,4.705,0.153,7.049,0.341
				c1.22,0.099,2.436,0.243,3.65,0.388c-2.617-0.312,1.393,0.269,1.558,0.298c2.396,0.414,4.761,0.98,7.108,1.614
				c1.129,0.305,2.242,0.669,3.352,1.036c0.322,0.105,3.778,1.506,1.148,0.361c1.851,0.805,3.592,1.819,5.25,2.961
				c-2.516-1.732-0.356-0.144,0.157,0.376c1.993,2.019-1.413-2.26-0.058,0.093c2.486-6.121,4.973-12.242,7.459-18.363
				c-8.229,1.467-17.396-0.521-25.777-0.273c-9.635,0.285-19.082,1.32-28.666,2.174c-9.176,0.817-18.443,1.439-27.389,3.771
				c-9.464,2.467-18.268,7.969-26.152,13.588c-11.487,8.188-4.66,25.902,9.632,22.848c-1.864,0.541-3.569,0.363-5.116-0.53
				c0.248,0.116,2.973,2.182,1.287,0.773c1.586,1.325,3.016,2.847,4.454,4.325c3.309,3.404,5.952,6.725,8.671,10.623
				c3.898,5.594,8.426,9.68,13.75,13.848c5.732,4.49,11.668,8.932,18.619,11.364c10.82,3.787,25.597,2.089,35.086-4.657
				c10.465-7.434,12.158-18.857,9.989-30.789c-1.585-8.707-15.261-12.715-20.902-5.517c-1.241,1.585-2.464,3.185-3.683,4.786
				c2.001-2.631-1.449,1.683-1.96,2.265c-0.53,0.604-4.421,4.128-2.283,2.518c-0.765,0.576-3.289,1.411-0.339,0.423
				c4.529-1.518,8.402,2.238,9.984,5.992c-0.203-0.567-0.368-1.146-0.496-1.734c-0.812-3.224,0.205,2.71-0.168-0.888
				c-0.227-2.188-0.293-4.395-0.395-6.591c-0.106-2.254-0.35-4.426-0.682-6.67c0.723,4.879-0.101-1.184-0.215-2.314
				c-0.372-3.676-0.498-7.369-0.146-11.052c-0.207,1.558-0.17,1.639,0.107,0.245c0.701-3.018-1.27,2.039,0.168-0.385
				c-2.926,4.934-10.323,4.874-14.487,1.44c0.601,0.495,1.103,1.127,1.604,1.718c-2.175-2.559,1.009,1.65,1.458,2.354
				c1.158,1.816,2.24,3.683,3.334,5.537c1.858,3.15,3.722,6.312,6.198,9.034c6.583,7.234,18.215,3.044,20.899-5.517
				c1.383-4.406,2.29-8.938,3.716-13.332c1.044-3.217,3.062-6.734,4.247-10.368c1.58-4.845,1.15-10.298,1.15-15.313
				c0-5.129,0-10.258,0-15.385c0-7.084,0.621-13.132,3.643-18.66c0.742-1.358,0.717-1.293,2.301-2.855
				c-1.082,0.732-1.1,0.79-0.047,0.174c-1.482,0.622-1.514,0.703-0.094,0.242c1.441-0.288,1.463-0.316,0.064-0.084
				c0.77-0.055,1.539-0.059,2.311-0.014c-1.465-0.236-1.502-0.186-0.113,0.152c-3.025-2.205-3.828-2.552-2.414-1.04
				c-1.068-1.839-2.139-3.677-3.209-5.517c0.41,1.172,0.404,0.832-0.018-1.02c0.129,3.107,0.572-2.485-0.186,1.023
				c-0.42,1.941-1.051,3.842-1.668,5.727c-1.146,3.506-2.141,7.014-2.998,10.607c-2.551,10.697-3.171,22.744,5.084,31.179
				c2.842,2.905,8.176,4.808,12.156,3.215c17.146-6.861,30.219-18.22,40.023-33.849c8.844-14.095,14.107-30.319,19.707-45.883
				c-8.184-1.107-16.369-2.215-24.553-3.322c-0.479,14.715-2.867,29.578,1.445,43.99c2.824,9.435,18.205,13.453,22.848,2.986
				c3.5-7.891,4.545-15.559,2.104-23.977c-2.166-7.467-7.119-14.746-14.574-17.51c-3.18-1.179-6.418-0.883-9.676-0.341
				c-0.932,0.155-1.852,0.349-2.775,0.55c-3.262,0.707,1.607,0.154-1.014,0.125c-1.057-0.012-2.111-0.085-3.164-0.152
				c-0.07-0.004-4.098-0.441-1.77-0.112c-1.244-0.176-2.467-0.452-3.686-0.749c-2.85-0.693,0.641,0.174,1.043,0.645
				c1.072,1.84,2.143,3.678,3.215,5.517c0.613,1.563-1.326,5.308,0.297,2.337c1.166-2.131-2.016,2.349-0.025,0.035
				c1.408-1.637,2.898-3.201,4.297-4.846c4.211-4.947,8.139-10.768,7.818-17.576c-0.434-9.209-7.582-15.309-16.426-16.175
				c-6.982-0.685-12.957,2.163-18.07,6.626c-14.117,12.326-29.982,45.57-9.363,58.994c10.328,6.719,24.471,4.43,35.059-0.266
				c10.824-4.803,16.117-18.861,20.012-29.051c5.01-13.104,7.059-25.762,0.725-38.881c-3.537-7.328-10.852-13.765-19.168-14.274
				c-7.744-0.474-13.766,4.414-20.031,8.147c-7.131,4.25-13.871,9.33-19.885,15.051c-5.873,5.592-10.328,12.334-15.171,18.783
				c1.385-1.844-1.239,1.494-1.213,1.463c-1.128,1.369-2.321,2.682-3.529,3.979c-1.218,1.31-2.518,2.535-3.836,3.739
				c-0.657,0.587-1.33,1.157-2.018,1.708c0.788-0.652,0.585-0.543-0.609,0.326c-0.419,0.283-4.544,2.375-2.495,1.555
				c-0.67,0.269-4.986,0.949-2.396,0.752c-1.49-0.071-1.552-0.004-0.186,0.203c-0.803-0.146-1.589-0.354-2.359-0.621
				c1.451,0.441-2.363-1.67-2.943-2.107c1.914,4.706,3.83,9.412,5.744,14.117c0.42-1.255,0.334-1.102-0.258,0.457
				c0.441-0.936,1.016-1.812,1.565-2.685c1.238-1.97,2.673-3.823,4.048-5.696c2.977-4.059,5.285-8.056,7.115-12.768
				c5.149-13.278-6.793-29.576-21.207-26.592c-6.061,1.254-10.073,5.887-14.156,10.121c-2.779,2.883-6.086,5.336-9.037,8.046
				c-7.131,6.55-15.91,15.942-14.957,26.46c1.027,11.342,12.617,15.907,21.339,8.838c13.146-10.654,29.539-16.848,44.172-25.156
				c7.272-4.137,14.341-10.223,14.825-19.17c0.541-9.99-8.24-16.752-17.207-18.27c-7.133-1.204-14.331-1.045-21.5-1.697
				c-9.699-0.884-19.387-1.828-29.128-2.094c-10.079-0.273-20.283,0.479-30.118,2.764c-5.29,1.229-9.75,3.857-13.623,7.62
				c-1.172,1.138-2.18,2.468-3.233,3.714c-0.538,0.635-1.099,1.248-1.683,1.842c-2.137,2.251,1.223-0.469-1.652,1.148
				c6.121,4.706,12.241,9.412,18.362,14.117c-0.567,1.613,1.918-3.1,1.698-2.824c1.594-1.983,3.443-3.764,5.281-5.515
				c3.294-3.139,6.49-5.853,9.691-7.776c6.895-4.146,16.381-5.086,23.3-1.748c-2.063-3.598-4.128-7.195-6.19-10.793
				c-0.016,1.061-0.291,1.654,0.014,0.987c-0.211,0.46-2.53,4.024-1.563,2.783c-2.817,3.616-6.003,6.903-8.757,10.579
				c-5.699,7.604-7.643,17.159-9.152,26.35c-1.415,8.609-2.957,16.885-5.842,25.137c-0.141,0.404-1.776,4.596-0.999,2.781
				c-0.67,1.563-1.454,3.071-2.272,4.561c-0.258,0.471-2.925,4.08-1.584,2.5c-0.521,0.584-1.075,1.135-1.663,1.652
				c1.954-1.828-2.017,0.617,0.662-0.385c5.274,4.019,10.549,8.037,15.823,12.055c-0.229,4.252-1.929,6.98-5.102,8.189
				c0.676-0.195,1.361-0.353,2.055-0.472c-2.949,0.593,1.746-0.102,2.522-0.158c4.353-0.319,8.438-0.218,12.542,0.603
				c9.913,1.982,18.884,7.797,29.229,5.674c10.646-2.185,15.746-15.02,15.801-24.626c0.03-5.517-2.193-10.821-6.041-14.716
				c-5.35-5.414-12.549-5.832-19.594-4.77c-1.592,0.227-1.785,0.263-0.578,0.108c-1.065,0.084-2.131,0.164-3.196,0.24
				c-2.8,0.205-5.598,0.42-8.392,0.694c-5.582,0.549-11.17,1.352-16.547,2.98c-9.166,2.776-17.271,7.904-15.85,18.719
				c1.221,9.281,5.396,16.916,9.953,24.943c4.549,8.016,12.432,17.197,22.697,16.09c7.092-0.766,15.507-7.6,12.054-15.824
				c-6.276-14.945-20.831-19.321-35.933-18.449c-5.445,0.314-11.039,1.309-15.66-1.096c-0.07-0.037-4.105-2.947-1.439-0.821
				c-0.668-0.532-1.272-1.132-1.869-1.739c-1.855-1.893,1.539,2.373,0.346,0.369c0.803,2.154,1.023,2.646,0.665,1.479
				c0.214,2.525,0.323,3.16,0.329,1.901c-0.012,0.489-1.576,5.216-0.955,4.114c-1.598,2.836-1.584,1.891-0.608,0.91
				c1.61-1.617-2.61,1.844-0.628,0.44c0.555-0.394,1.146-0.735,1.732-1.079c1.31-0.769,2.694-1.41,4.074-2.039
				c2.619-1.195-2.677,1.09,0.049-0.037c1.054-0.436,2.115-0.85,3.177-1.266c7.544-2.957,15.3-5.541,21.632-10.748
				c10.074-8.285,8.207-27.229-3.988-32.742c-7.729-3.494-14.814-1.246-21.902,2.568c-1.056,0.567-2.098,1.153-3.164,1.701
				c2.281-1.172-1.715,0.642-1.834,0.686c-1.203,0.442-2.437,0.793-3.673,1.133c-0.762,0.197-1.53,0.366-2.305,0.506
				c1.483-0.174,1.51-0.204,0.079-0.093c-0.791,0.047-3.774-0.5-0.604,0.102c-2.952-0.56,2.146,1.304-0.491-0.105
				c-2.623-1.401,1.698,1.716-0.501-0.526c1.844,1.88-0.362-0.689-0.637-1.159c-0.62-1.065-1.18-2.679-1.75-5.019
				c-0.751-3.086,0.145,2.712-0.006-0.146c-0.184-3.475-0.484,1.568-0.004-0.22c-0.809,3.013-0.885,1.847-0.186,0.72
				c-1.747,2.815-1.229,1.537-0.313,0.705c-2.595,2.36-1.37,1.069-0.396,0.518c2.197-1.244-2.894,1.062-0.428,0.151
				c1.445-0.534,2.968-0.863,4.476-1.169c0.815-0.165,1.64-0.287,2.461-0.414c-3.829,0.587,0.229,0.008,1.007-0.073
				c12.301-1.269,26.603-0.862,36.032-10.232c-5.893-5.893-11.785-11.785-17.678-17.678c-10.298,11.116-21.87,20.9-32.989,31.164
				c-10.326,9.53-22.21,17.772-31.344,28.503c6.965,4.055,13.928,8.107,20.893,12.162c5.439-14.751,8.334-30.143,14.943-44.483
				c6.604-14.327,17.986-33.938,9.129-49.482c-3.467-6.08-11.145-7.653-17.102-4.482c-16.014,8.537-25.63,24.923-33.42,40.655
				c-4.19,8.461-8.506,16.939-11.538,25.896c-3.228,9.529-4.753,19.57-7.454,29.25c-3.732,13.377,16.621,22.65,22.848,9.633
				c4.152-8.682,6.521-17.811,9.26-26.986C173.021,183.448,148.891,176.881,144.289,192.289L144.289,192.289z"/>
		</g>
	</g>
	<g>
		<g>
			<path fill="#FFFFFF" d="M164.177,90.62c0.559,4.416,1.5,8.416,2.779,12.656c1.968,6.518,8.687,10.571,15.377,8.731
				c6.444-1.773,10.698-8.855,8.73-15.376c-0.866-2.869-1.79-5.722-2.252-8.69c0.149,1.108,0.298,2.215,0.446,3.323
				c-0.027-0.214-0.054-0.429-0.081-0.643c-0.438-3.461-1.091-6.269-3.661-8.839c-2.334-2.333-5.537-3.661-8.839-3.661
				s-6.505,1.328-8.839,3.661C165.745,83.874,163.787,87.536,164.177,90.62L164.177,90.62z"/>
		</g>
	</g>
	<g>
		<g>
			<path fill="#FFFFFF" d="M208.137,121.637c-3.635-6.408-7.472-12.696-11.447-18.905c-4.264-6.656-8.445-13.644-13.871-19.428
				c-8.5-9.063-21.433-14.125-29.97-21.856c-5.046-4.57-12.684-4.994-17.678,0c-4.638,4.637-5.052,13.103,0,17.678
				c8.883,8.044,20.731,13.255,28.938,20.835c4.363,4.03,7.438,9.883,10.992,15.389c3.999,6.186,7.815,12.492,11.448,18.904
				C194.494,148.277,216.094,135.684,208.137,121.637L208.137,121.637z"/>
		</g>
	</g>
	<g>
		<g>
			<path fill="#FFFFFF" d="M169.201,83.071c0.443,1,0.889,2,1.332,3c3.253,7.32,13.646,2.992,13.977-3.785
				c0.596-12.187-12.911-17.049-22.646-19.134c-7.08-1.517-14.085-3.603-21.23-4.771c-4.078-0.666-7.802-0.681-11.858,0.12
				c-3.442,0.679-6.616,2.267-10.091,2.887c2.432,4.178,4.864,8.357,7.297,12.535c3.745-3.854,13.666-0.609,18.195,0.242
				c3.655,0.687,7.387,0.892,11.032,1.558c4.832,0.883,8.241,6.024,10.993,9.683c2.451,3.26,6.425,4.938,10.261,2.69
				c3.221-1.886,5.154-6.986,2.69-10.262c-4.129-5.49-8.316-11.035-14.412-14.474c-5.072-2.862-11.008-2.641-16.576-3.66
				c-10.678-1.955-24.208-5.214-32.791,3.616c-5.551,5.711,0.158,13.81,7.297,12.535c4.943-0.882,9.193-3.326,14.306-2.943
				c6.284,0.471,12.533,3.061,18.708,4.276c3.039,0.598,6.032,1.275,8.982,2.231c1.453,0.471,2.756,1.13,4.072,1.908
				c1.189,0.704,0.827-0.179,0.771,0.962c4.658-1.262,9.317-2.523,13.977-3.785c-0.445-1-0.889-2-1.334-3
				c-1.66-3.738-7.031-4.583-10.261-2.691C168.077,75.044,167.541,79.335,169.201,83.071L169.201,83.071z"/>
		</g>
	</g>
	<g>
		<g>
			<path fill="#FFFFFF" d="M254.225,99.81c-6.184,3.508-13.478,3.107-20.209,4.911c-9.334,2.5-5.368,16.964,3.988,14.461
				c8.194-2.192,16.196-2.111,23.791-6.419C270.206,107.991,262.65,95.03,254.225,99.81L254.225,99.81z"/>
		</g>
	</g>
	<g>
		<g>
			<path fill="#FFFFFF" d="M196.85,103.326c0.981,3.961,1.637,8.475,4.643,11.478c1.424,1.423,3.532,0.61,4.178-1.103
				c1.52-4.028,0.01-7.057-1.877-10.676c-1.497-2.875-5.726-0.349-4.316,2.523c1.754,3.577,4.971,7.509,3,11.727
				c1.438,0,2.878,0,4.316,0c-1.941-3.158-2.619-6.694-3.461-10.255c-0.927-3.922-2.623-7.437-4.383-11.042
				c-3.248-6.658-7.133-13.138-13.178-17.6c-1.582-1.168-3.75,0.422-3.762,2.159c-0.037,5.611,0.979,12.913,4.982,17.143
				c1.32,1.396,3.661,0.655,4.178-1.103c0.65-2.206,0.376-4.14,0.215-6.415c-1.637,0.222-3.273,0.443-4.91,0.665
				c1.07,2.64,1.668,5.576,3.015,8.094c1.413,2.644,3.474,4.239,5.628,6.259c2.35,2.203,5.892-1.326,3.535-3.535
				c-2.174-2.039-3.98-3.176-5.209-6.128c-0.816-1.964-1.346-4.043-2.148-6.019c-0.975-2.404-5.127-2.386-4.91,0.665
				c0.123,1.733,0.473,3.36-0.035,5.085c1.393-0.368,2.785-0.735,4.178-1.103c-2.988-3.158-3.545-9.465-3.518-13.607
				c-1.254,0.72-2.508,1.439-3.762,2.159c6.258,4.62,9.722,12.263,12.968,19.094c2.758,5.804,2.86,12.481,6.261,18.005
				c0.907,1.474,3.488,1.771,4.316,0c2.932-6.268-0.207-11.076-3-16.77c-1.438,0.841-2.878,1.682-4.316,2.523
				c1.24,2.383,2.458,3.945,1.373,6.824c1.393-0.368,2.785-0.735,4.178-1.103c-2.258-2.256-2.619-6.296-3.357-9.272
				C200.895,98.868,196.073,100.196,196.85,103.326L196.85,103.326z"/>
		</g>
	</g>
	<g>
		<g>
			<path fill="#FFFFFF" d="M197.385,97.786c-0.488,5.039,3.801,13.652,9.376,13.91c3.606,0.167,8.231-3.448,11.261-4.939
				c5.15-2.533,8.133-5.059,12.006-9.204c-1.01,0.13-2.02,0.261-3.029,0.391c2.3,1.744,4.831,3.061,7.25,4.625
				c0.643-1.523,1.284-3.046,1.926-4.569c-5.404-1.012-10.535-0.75-15.953,0c0.442,1.607,0.886,3.214,1.328,4.821
				c2.406-0.354,4.716-0.958,7.16-1.007c2.329-0.047,5.176,1.345,7.451,1.888c4.312,1.03,9.193,0.461,13.525-0.083
				c3.605-0.453,7.379-1.202,10.696-2.743c1.46-0.678,2.933-1.387,4.156-2.458c1.603-1.4,2.183-3.643,4.329-1.74
				c0.168-1.309,0.337-2.618,0.506-3.926c-3.199,1.702-6.698,2.461-7.238,6.534c-0.423,3.189,4.582,3.148,5,0
				c0.072-0.545,4.111-1.871,4.762-2.216c1.37-0.729,1.688-2.878,0.506-3.926c-1.688-1.497-4.238-4.075-6.688-2.868
				c-1.584,0.781-2.436,1.816-3.392,3.281c-1.582,2.424-5.261,3.357-7.853,4.069c-6.432,1.767-13.769,2.281-20.201,0.402
				c-5.125-1.498-8.871-0.791-14.049-0.027c-3.192,0.471-1.812,5.256,1.328,4.821c4.516-0.625,8.793-0.843,13.297,0
				c2.764,0.518,4.381-2.982,1.926-4.569c-2.418-1.564-4.95-2.881-7.25-4.625c-0.861-0.653-2.332-0.354-3.029,0.391
				c-1.902,2.035-3.537,4.275-5.869,5.859c-2.561,1.738-5.781,2.879-8.553,4.259c-2.342,1.166-5.066,3.814-6.996,0.938
				c-1.384-2.061-2.935-4.757-2.689-7.288C202.695,94.577,197.693,94.607,197.385,97.786L197.385,97.786z"/>
		</g>
	</g>
	<g>
		<g>
			<path fill="#FFFFFF" d="M378.342,75.875c-3.184,1.243-6.416,2.723-9.836,3.161c0.59,1.422,1.18,2.845,1.768,4.268
				c6.424-5.482,15.389-6.751,22.744-10.609c2.857-1.498,0.33-5.813-2.523-4.317c-7.846,4.115-16.867,5.512-23.756,11.391
				c-1.564,1.336-0.385,4.543,1.768,4.268c3.936-0.504,7.488-1.904,11.166-3.339C382.641,79.538,381.35,74.702,378.342,75.875
				L378.342,75.875z"/>
		</g>
	</g>
	<g>
		<g>
			<path fill="#FFFFFF" d="M388.592,66.625c-12.621,4.641-25.219,9.397-37.098,15.752c-5.072,2.714-9.26,6.776-13.666,10.408
				c-2.945,2.429-6.129,4.767-9.334,6.842c-2.691,1.742-6.32,2.153-9.25,3.5c-2.482,1.142-0.949,4.46,1.262,4.659
				c6.918,0.62,13.748,0.395,20.502-1.31c6.707-1.692,12.383-5.691,18.059-9.452c8.695-5.761,22.211-8.398,26.848-18.727
				c1.072-2.385-1.973-5.389-3.926-3.029c-12.586,15.212-36.684,10.346-50.25,24.75c-1.643,1.745-0.045,4.98,2.434,4.178
				c6.512-2.108,13.363-2.215,19.596-5.252c6.656-3.243,12.018-9.345,17.756-13.891c1.682-1.331,0.312-4.455-1.768-4.268
				c-11.604,1.046-22.262,5.633-31.268,12.982c-2.318,1.893,0.631,5.119,3.029,3.926c4.684-2.328,10.887-5.927,16.324-4.998
				c-0.498-1.224-0.996-2.448-1.494-3.672c-2.045,3.457-6.361,4.781-9.604,6.853c1.01,1.309,2.02,2.618,3.029,3.926
				c2.307-2.472,5.027-5.685,8.818-4.857c-0.582-1.025-1.164-2.05-1.746-3.075c-0.734,3.917-4.705,6.503-7.607,8.897
				c1.18,1.178,2.357,2.357,3.535,3.535c4.889-4.042,11.189-5.725,16.744-8.609c2.555-1.326,0.77-5.312-1.926-4.569
				c-2.088,0.575-4.15,1.221-6.25,1.75c0.941,1.224,1.883,2.448,2.822,3.672c3.775-5.874,15.531-4.925,21.508-7.101
				c3.004-1.094,1.707-5.927-1.33-4.821c-7.82,2.847-19.438,1.528-24.494,9.399c-1.229,1.911,0.781,4.187,2.824,3.672
				c2.1-0.529,4.162-1.175,6.25-1.75c-0.643-1.523-1.285-3.046-1.928-4.569c-6.008,3.119-12.467,5.017-17.756,9.391
				c-2.488,2.057,1.07,5.569,3.535,3.535c3.635-2.997,7.973-6.195,8.895-11.103c0.238-1.28-0.336-2.767-1.746-3.075
				c-5.783-1.263-9.924,2.114-13.684,6.143c-1.889,2.023,0.562,5.503,3.029,3.926c4.115-2.629,8.801-4.257,11.396-8.647
				c0.762-1.286,0.119-3.397-1.492-3.672c-7.043-1.203-14.041,2.452-20.178,5.502c1.01,1.309,2.02,2.618,3.029,3.926
				c7.896-6.443,17.561-10.601,27.732-11.518c-0.588-1.422-1.178-2.845-1.768-4.268c-5.133,4.066-9.811,8.676-15.314,12.263
				c-5.865,3.822-13.338,3.491-19.832,5.594c0.811,1.393,1.621,2.786,2.432,4.178c13.455-14.286,37.412-9.232,50.25-24.75
				c-1.309-1.01-2.617-2.02-3.926-3.029c-3.941,8.779-16.078,11.353-23.676,16.044c-5.514,3.404-10.463,7.183-16.648,9.358
				c-6.6,2.321-13.895,2.225-20.768,1.609c0.422,1.553,0.842,3.106,1.262,4.659c2.488-1.145,5.266-1.521,7.715-2.737
				c3.207-1.593,5.904-3.913,8.785-6.013c4.912-3.579,9.188-7.944,14.334-11.205c11.307-7.167,24.83-11.451,37.32-16.043
				C392.92,70.344,391.625,65.51,388.592,66.625L388.592,66.625z"/>
		</g>
	</g>
	<g>
		<g>
			<path fill="#FFFFFF" d="M366.244,78.877c-3.26,2.319-6.4,4.17-10.135,5.618c-3.367,1.307-6.756,2.589-9.645,4.808
				c-0.602,0.463-5.104,6.932-2.896,6.667c-2.744,0.33-5.555-0.171-8.312,0.066c0.805,0.612,1.607,1.224,2.412,1.835
				c-0.312-1.582,3.299-2.949,4.35-3.677c2.617-1.809,0.271-6.008-2.523-4.317c-2.055,1.243-4.238,2.233-6.318,3.432
				c-2.361,1.359-3.838,3.708-6.182,5.068c-2.785,1.618-0.27,5.939,2.523,4.317c1.783-1.036,3.1-2.336,4.531-3.815
				c2.086-2.157,5.438-3.153,7.969-4.685c-0.84-1.439-1.682-2.878-2.523-4.317c-3.666,2.535-7.67,4.153-6.648,9.323
				c0.199,1.013,1.375,1.924,2.41,1.835c5.307-0.456,11.822,1.932,12.795-5.199c0.521-3.814,6.348-5.339,9.389-6.52
				c4.148-1.611,7.688-3.533,11.328-6.123C371.371,81.343,368.879,77.004,366.244,78.877L366.244,78.877z"/>
		</g>
	</g>
	<g>
		<g>
			<path fill="#FFFFFF" d="M318.588,104.581c-2.225-0.863-4.328-1.629-6.197-3.178c-0.084,0.654-0.17,1.309-0.254,1.963
				c0.123-0.026,0.246-0.053,0.369-0.079c0.971-0.051,1.809-1.4,0.885-2.134c-0.955-0.757-1.145-0.907-2.254-1.445
				c-1.439-0.7-2.705,1.434-1.262,2.158c2.73,1.368,5.615,1.859,8.549,2.626c-0.184-0.697-0.367-1.393-0.551-2.089
				c-0.783,0.635-1.482,1.347-2.25,2c-0.553,0.47-0.408,1.278,0,1.768c3.785,4.555,10.768,5.699,16.318,6.378
				c6.25,0.766,13.848,0.966,19.695-1.683c1.467-0.664,0.195-2.818-1.262-2.158c-4.885,2.212-11.121,1.842-16.369,1.579
				c-5.35-0.268-13.033-1.575-16.615-5.884c0,0.589,0,1.178,0,1.768c0.768-0.653,1.467-1.365,2.25-2
				c0.746-0.605,0.291-1.869-0.553-2.089c-2.711-0.709-5.414-1.103-7.951-2.374c-0.42,0.719-0.84,1.439-1.262,2.158
				c0.582,0.352,1.166,0.703,1.748,1.055c0.295-0.711,0.588-1.422,0.883-2.134c-0.68,0.036-1.037,0.101-1.631,0.421
				c-0.664,0.358-0.867,1.454-0.252,1.963c2.211,1.833,4.643,2.79,7.301,3.822C319.43,107.576,320.074,105.158,318.588,104.581
				L318.588,104.581z"/>
		</g>
	</g>
	<g>
		<g>
			<path fill="#FFFFFF" d="M393.088,69.992c0.934-0.358,2.828-1.272,3.215,0.145c0.387,1.41-0.324,3.246-0.752,4.567
				c0.762-0.099,1.523-0.199,2.285-0.298c-0.928-1.275-1.387-2.72-1.875-4.202c-0.371-1.13-2.096-1.254-2.41,0
				c-0.084,0.333-0.166,0.667-0.25,1c0.818,0.111,1.637,0.222,2.455,0.333c0.006-0.68,0.035-1.25,0.205-1.917
				c-0.762,0.099-1.521,0.199-2.283,0.298c1.596,2.585,1.23,5.226-1.055,7.235c0.654,0.084,1.309,0.168,1.963,0.253
				c-0.697-1.553-0.887-3.283-1.125-4.952c-0.207-1.464-2.379-0.996-2.455,0.333c-0.047,0.838-0.211,1.659-0.25,2.5
				c-0.059,1.288,1.701,1.645,2.33,0.631c0.379-0.611,0.871-1.138,1.25-1.75c-0.721,0-1.439,0-2.158,0
				c0.447,0.939,0.762,1.822,0.828,2.869c0.102,1.601,2.602,1.611,2.5,0c-0.094-1.489-0.531-2.791-1.17-4.131
				c-0.422-0.884-1.701-0.74-2.158,0c-0.379,0.611-0.871,1.138-1.25,1.75c0.775,0.21,1.553,0.42,2.328,0.631
				c0.039-0.84,0.203-1.662,0.25-2.5c-0.818,0.111-1.637,0.222-2.455,0.333c0.273,1.922,0.576,3.767,1.377,5.548
				c0.35,0.781,1.414,0.735,1.963,0.253c3.098-2.725,3.596-6.783,1.445-10.265c-0.557-0.9-2.008-0.776-2.285,0.298
				c-0.221,0.858-0.289,1.697-0.295,2.583c-0.01,1.406,2.111,1.711,2.455,0.333c0.084-0.333,0.168-0.667,0.25-1
				c-0.803,0-1.605,0-2.41,0c0.553,1.675,1.078,3.357,2.127,4.798c0.631,0.87,1.932,0.792,2.283-0.298
				c0.639-1.973,1.512-4.76,0.445-6.749c-1.236-2.302-3.936-1.824-5.982-1.039C390.936,68.152,391.58,70.57,393.088,69.992
				L393.088,69.992z"/>
		</g>
	</g>
	<g>
		<g>
			<path fill="#FFFFFF" d="M354.689,98.763c-2.395,5.125-7.455,8.542-12.703,10.27c-1.984,0.654-11.242,3.71-12.482,2.978
				c1.717,1.014-1.072,4.221,0.188,3.412c1.209-0.777,2.607-1.196,3.961-1.634c3.25-1.05,6.637-1.726,10-2.29
				c2.525-0.423,7.443-0.362,11.08-0.585c6.496-0.398,12.207-2.785,17.475-6.525c5.34-3.793,9.607-8.692,14.271-13.228
				c4.031-3.919,8.453-7.774,9.6-13.546c0.791-3.987-2.289-6.765-6.15-6.15c-12.721,2.025-18.264,12.771-25.457,22.036
				c-2.354,3.031-1.346,8.941,3.535,8.536c6.637-0.551,12.965-4.237,19.229-6.321c7.393-2.46,17.182-5.339,20.84-12.905
				c1.887-3.906-1.172-8.448-5.646-7.345C392.148,78,384.002,87.767,376.477,94.647c-4.705,4.302-9.414,8.639-14.48,12.519
				c-4.383,3.356-10.25,3.285-15.49,3.62c-6.402,0.41-6.441,10.406,0,9.994c4.803-0.307,9.629-0.534,14.266-1.914
				c5.584-1.662,10.035-5.914,14.359-9.607c5.275-4.503,10.287-9.309,15.467-13.919c4.367-3.888,8.607-8.782,14.488-10.232
				c-1.883-2.448-3.766-4.896-5.646-7.345c-2.762,5.713-12.559,7.55-18.086,9.378c-4.223,1.397-8.885,4.524-13.348,4.895
				c1.18,2.845,2.357,5.69,3.535,8.536c5.963-7.679,10.51-17.787,21.045-19.464c-2.051-2.05-4.102-4.1-6.15-6.15
				c-0.699,3.512-3.516,5.815-6.012,8.175c-2.705,2.556-5.217,5.306-7.875,7.909c-6.055,5.927-12.24,9.702-20.828,10.021
				c-8.893,0.33-17.605,1.373-25.818,5.062c-9.535,4.282-5.705,16.504,4.395,15.867c5.514-0.347,12.1-2.375,17.199-4.331
				c6.396-2.458,12.885-7.552,15.828-13.85C366.035,98.005,357.418,92.924,354.689,98.763L354.689,98.763z"/>
		</g>
	</g>
	<g>
		<g>
			<path fill="#FFFFFF" d="M285.082,103.461c-4.952,2.47-8.158,6.888-8.238,12.492c-0.038,2.638,3.306,3.205,4.658,1.262
				c2.201-3.165,2.717-7.538,6.104-9.77c-1.225-0.498-2.449-0.996-3.673-1.494c0.53,2.544-0.991,4.42-2.69,5.901
				c1.178,0,2.357,0,3.535,0c-1.688-1.759-3.312-3.575-5-5.333c-1.178,1.178-2.357,2.357-3.535,3.535
				c4.031,3.326,10.58,3.641,15.332,1.824c6.273-2.395,3.922-8.555,2.853-13.59c-0.364-1.709-3.036-2.578-4.185-1.103
				c-0.988,1.268-2.065,2.345-3.334,3.333c1.393,0.811,2.786,1.622,4.179,2.432c1.028-3.747,23.103,9.167,25.228,10.449
				c3.656,2.204,7.236,4.526,10.842,6.805c6.004,3.795,10.646,5.734,17.111,1.899c-1.223-0.497-2.447-0.994-3.672-1.491
				c1.275,3.487-3.938,3.868-6.33,3.87c-2.992,0.002-6.715-2.708-1.74-3.258c1.604-0.178,3.326,0.165,4.785,0.834
				c1.895,0.871,0.875,1.851-0.861,1.495c-3.822-0.782-8.043-3.921-10.676-6.702c-1.744-1.846-4.826,0.06-4.178,2.429
				c0.379,1.385,1.299,3.666,0.617,5.09c0.293-0.61-0.904-0.75-1.787-1.455c-1.85-1.479-3.82-4.128-3.342-6.632
				c0.383-2,4.504,3.233,5.232,4.25c1.621,2.264,4.186,6.121,3.611,9.08c1.025-0.582,2.051-1.164,3.076-1.746
				c-5.586-1.931-8.564-7.873-9.92-13.247c-1.607,0.443-3.215,0.886-4.822,1.329c0.729,2.241,1.605,4.42,2.334,6.659
				c1.607-0.442,3.215-0.886,4.822-1.328c-0.58-1.658-1.09-3.333-1.668-4.993c-1.523,0.642-3.047,1.284-4.57,1.925
				c1.018,2.101,1.984,4.225,3,6.328c1.406,2.909,5.686,0.368,4.318-2.523c-2.154-4.552-4.717-8.727-8.725-11.874
				c-3.836-3.013-8.49-4.867-12.825-7.016c-1.721-0.853-4.598,0.596-3.673,2.823c2.273,5.48,6.164,9.614,10.301,13.766
				c1.572,1.576,4.203,0.384,4.264-1.765c0.096-3.425-0.695-6.422-1.756-9.664c-0.994-3.044-5.738-1.779-4.812,1.329
				c1.295,4.35,2.439,8.73,3.992,12.992c0.975,2.681,4.695,2.197,4.91-0.664c0.041-1.088,0.174-2.165,0.402-3.231
				c0.383-2.02,0.01,0.305,0.604,1.496c0.562,1.125,2.375,1.667,3.422,0.896c1.127-0.832,1.73-1.434,2.562-2.56
				c-1.139,0.299-2.279,0.598-3.42,0.896c1.412,0.547,2.559,1.469,3.436,2.766c1.883,2.574,6.225,0.084,4.318-2.52
				c-1.477-2.016-2.969-3.43-5.23-4.56c-1.322-0.661-2.568-0.255-3.42,0.897c-0.256,0.256-0.514,0.513-0.77,0.77
				c1.139,0.299,2.279,0.598,3.42,0.896c-1.273-2.555-3.16-5.958-6.553-4.944c-3.396,1.015-3.562,6.437-3.77,9.199
				c1.635-0.222,3.271-0.442,4.908-0.664c-1.555-4.262-2.703-8.643-4-12.993c-1.604,0.443-3.209,0.886-4.812,1.329
				c0.906,2.775,1.658,5.381,1.574,8.335c1.42-0.589,2.84-1.178,4.262-1.767c-3.443-3.457-7.107-6.972-9.01-11.563
				c-1.225,0.941-2.449,1.882-3.673,2.823c3.885,1.924,7.892,3.654,11.513,6.047c3.959,2.611,6.271,6.882,8.242,11.049
				c1.439-0.842,2.879-1.683,4.318-2.523c-1.016-2.101-1.984-4.224-3-6.327c-1.232-2.549-5.498-0.743-4.57,1.926
				c0.58,1.658,1.09,3.333,1.668,4.992c1.051,3.017,5.826,1.758,4.822-1.328c-0.73-2.237-1.605-4.418-2.334-6.66
				c-0.992-3.053-5.613-1.813-4.822,1.329c1.82,7.214,6.096,14.211,13.412,16.739c1.217,0.42,2.828-0.469,3.076-1.746
				c1.197-6.167-3.451-12.884-7.514-17.075c-3.768-3.886-9.869-4.693-11.104,1.771c-0.99,5.175,3.43,11.079,8.098,12.912
				c7.4,2.906,7.455-5.962,6.188-10.597c-1.395,0.81-2.787,1.619-4.18,2.429c4.453,4.71,15.793,12.871,20.732,4.823
				c4.438-7.221-9.037-9.725-13.311-8.448c-2.973,0.888-5.33,3.936-4.736,7.103c0.637,3.4,3.998,4.904,7.09,5.409
				c6.02,0.982,16.342-1.948,13.404-9.985c-0.545-1.488-2.195-2.368-3.674-1.491c-4.623,2.736-7.566,0.885-11.715-1.684
				c-1.717-1.065-3.408-2.173-5.115-3.257c-5.156-3.272-10.383-6.433-15.77-9.309c-4.701-2.514-20.268-11.451-22.879-1.923
				c-0.721,2.63,2.324,3.876,4.178,2.432c1.27-0.988,2.349-2.065,3.338-3.333c-1.395-0.368-2.789-0.735-4.182-1.103
				c0.532,2.513,2.654,6.671-0.236,7.776c-2.549,0.974-7.377,0.947-9.586-0.875c-2.447-2.019-5.809,1.168-3.535,3.535
				c1.688,1.759,3.312,3.575,5,5.333c0.991,1.033,2.525,0.88,3.535,0c3.185-2.774,4.847-6.586,3.977-10.766
				c-0.32-1.537-2.375-2.35-3.672-1.494c-4.407,2.904-5.05,7.468-7.897,11.563c1.553,0.42,3.106,0.841,4.659,1.262
				c0.055-3.916,2.395-6.496,5.762-8.174C290.49,106.339,287.957,102.026,285.082,103.461L285.082,103.461z"/>
		</g>
	</g>
	<g>
		<g>
			<path fill="#FFFFFF" d="M287.742,103.019c-0.188,0.188-0.375,0.375-0.562,0.562c-1.695,1.694,0.001,5.034,2.432,4.178
				c7.62-2.678,19.195-2.096,26.248,1.817c2.479,1.375,12.646,5.805,12.646-0.416c0-1.87-1.129-2.763-2.742-3.304
				c-1.898-0.637-4.281-0.621-6.266-0.985c-2.348-0.432-4.18-1.92-6.08-3.232c-1.514-1.046-18.127-8.997-16.74-11.279
				c-1.311,0.169-2.622,0.337-3.933,0.506c3.017,3.476,4.634,7.661,8.7,10.141c2.377,1.451,5.27-2.126,3.025-3.926
				c-5.189-4.161-10.838-7.542-14.557,0.131c1.523,0.642,3.049,1.284,4.575,1.926c0.331,0.449,0.663,0.898,0.995,1.347
				c1.141-1.14,2.282-2.28,3.422-3.42c-2.248-1.108-3.592-3.586-5.046-5.541c-0.989-1.33-2.638-1.667-3.931-0.506
				c-6.56,5.886-16.487-0.764-23.25,5.25c-1.799,1.599-0.2,4.055,1.768,4.268c3.369,0.364,6.849,0.871,10.25,0.875
				c4.535,0.005,8.887-1.718,13.377-2.062c-0.721-1.254-1.441-2.508-2.16-3.762c-2.157,2.851-7.875,4.175-10.966,5.982
				c-1.228,0.439-2.446,0.527-3.659,0.263c-0.291-0.042-0.583-0.085-0.875-0.127c-1.571-0.657-1.94,0.275-1.107,2.796
				c2.631,0.498,3.354,2.19,4.857,4.234c0.742,1.009,2.234,1.758,3.42,0.897c5.398-3.921,2.287-13.143-4.465-13.281
				c-2.535-0.052-6.617,1.396-6.711,4.531c-0.109,3.624,3.356,4.071,6.289,3.903c-0.222-1.637-0.443-3.274-0.664-4.911
				c-3.417,0.608-6.392,1.203-9.41,2.939c1.01,1.309,2.02,2.618,3.029,3.926c1.316-1.644,3.09-2.2,5.318-1.669
				c3.152,0.535,4.502-4.283,1.328-4.821c-4.028-0.684-7.291-0.185-10.182,2.956c-1.906,2.07,0.514,5.374,3.029,3.926
				c2.632-1.514,5.27-1.911,8.215-2.436c2.785-0.496,2.131-5.071-0.664-4.911c-0.866,0.127-1.717,0.032-2.551-0.284
				c0.412,0.72,0.826,1.439,1.238,2.159c0.041-1.384,6.49,1.609,3.676,3.654c1.141,0.299,2.28,0.598,3.42,0.897
				c-2.496-3.394-4.657-6.657-9.367-6.783c-2.886-0.077-5.542,2.759-3.246,5.438c1.97,2.299,7.789,2.994,10.404,1.641
				c4.517-2.337,10.824-4.252,13.965-8.397c1.125-1.484-0.388-3.897-2.162-3.762c-3.481,0.267-6.891,1.15-10.322,1.761
				c-4.275,0.761-9.008-0.109-13.305-0.574c0.59,1.422,1.179,2.845,1.768,4.268c2.936-2.61,9.328-1.258,12.873-1.057
				c4.342,0.247,7.263-1.398,10.381-4.193c-1.311-0.168-2.621-0.337-3.93-0.506c1.975,2.658,3.78,5.828,6.843,7.334
				c2.334,1.15,4.481-1.13,3.421-3.42c-1.901-4.109-9.277-6.248-10.141-0.153c-0.363,2.559,3.225,4.709,4.574,1.926
				c1.537-3.17,4.844-0.609,6.703,0.881c1.01-1.309,2.02-2.618,3.027-3.926c-3.479-2.123-5.064-6.342-7.681-9.359
				c-1.082-1.247-3.144-0.795-3.933,0.506c-3.072,5.063,4.213,10.08,7.842,12.358c3.828,2.404,8.104,3.968,11.885,6.581
				c4.24,2.928,8.418,2.582,13.086,4.148c-0.582-0.582-1.164-1.164-1.746-1.746c-0.029-0.187-0.059-0.373-0.088-0.56
				c0.719-0.413,1.439-0.826,2.158-1.238c-5.918-0.188-10.697-4.639-16.643-5.372c-6.684-0.825-14.107-1.34-20.564,0.93
				c0.811,1.393,1.621,2.786,2.432,4.178c0.188-0.188,0.375-0.375,0.562-0.562C293.564,104.272,290.023,100.736,287.742,103.019
				L287.742,103.019z"/>
		</g>
	</g>
	<g>
		<g>
			<path fill="#FFFFFF" d="M307.268,125.609c0.578,2.814,1.746,4.963,3.639,7.104c1.527,1.727,4.178,0.27,4.268-1.768
				c0.266-6.034-3.752-9.592-6.34-14.587c-1.307,1.01-2.613,2.018-3.92,3.026c5.48,5.682,9.703,12.347,16.164,17.054
				c1.141,0.831,2.734,0.154,3.42-0.896c3.041-4.664,2.357-10.381-3.824-11.096c-1.416-0.164-2.422,1.264-2.5,2.5
				c-0.277,4.398,2.988,6.022,6.238,8.158c0.84-1.438,1.682-2.878,2.523-4.316c-11.24-5.412-22.355-11.325-33.967-15.912
				c-7.385-2.919-16.863-2.383-19.369,6.406c-0.533,1.867,1.252,3.535,3.074,3.074c2.18-0.55,4.002-1.447,5.932-2.584
				c2.127-1.252,1.244-4.677-1.262-4.652c-12.891,0.128-25.547,2.667-38.104,5.371c-6.49,1.4-12.969,2.844-19.496,4.066
				c-2.544,0.477-5.395,1.223-7.963,0.566c-1.86-0.475-3.539-3.246-4.67-4.611c-1.064-1.285-3.14-0.759-3.927,0.506
				c-1.04,1.67-1.718,3.375-2.252,5.264c-0.407,1.438,0.498,2.552,1.746,3.074c10.489,4.395,24.824-3.77,34.397-7.511
				c6.027-2.355,12.371-3.879,18.666-5.334c8.676-2.006,18.151-3.346,26.604,0.185c2.974,1.24,4.258-3.596,1.328-4.82
				c-13.408-5.604-30.02-0.585-43.226,3.456c-5.95,1.819-11.64,4.531-17.487,6.652c-5.602,2.031-13.086,5.009-18.953,2.552
				c0.582,1.024,1.164,2.05,1.746,3.074c0.416-1.467,0.941-2.773,1.748-4.068c-1.309,0.168-2.617,0.337-3.926,0.506
				c2.259,2.73,4.553,5.695,8.295,6.18c5.818,0.754,12.346-1.418,17.979-2.597c15.702-3.286,31.355-7.357,47.494-7.518
				c-0.421-1.551-0.842-3.102-1.262-4.651c-1.541,0.906-2.998,1.64-4.736,2.078c1.024,1.022,2.05,2.046,3.074,3.07
				c2.757-9.667,17.316-1.317,22.604,1.229c7.788,3.756,15.587,7.511,23.388,11.266c2.893,1.394,5.236-2.533,2.523-4.316
				c-1.334-0.877-3.891-1.791-3.762-3.842c-0.834,0.834-1.668,1.666-2.5,2.5c1.709,0.197-0.219,3.152-0.492,3.572
				c1.141-0.299,2.281-0.599,3.42-0.897c-6.053-4.409-10.014-10.942-15.158-16.268c-2.035-2.112-5.191,0.566-3.92,3.027
				c2.09,4.037,5.863,7.197,5.65,12.066c1.422-0.59,2.844-1.179,4.268-1.768c-1.348-1.521-1.955-2.94-2.357-4.896
				C311.434,121.125,306.621,122.463,307.268,125.609L307.268,125.609z"/>
		</g>
	</g>
	<g>
		<g>
			<path fill="#FFFFFF" d="M406.006,71.12c-4.275,0.511-7.822,2.927-11.998,3.756c0.941,1.224,1.883,2.448,2.824,3.672
				c0.703-1.657,2.396-2.394,3.77-3.437c2.533-1.923,0.047-6.269-2.523-4.317c-2.039,1.549-4.51,2.75-5.564,5.23
				c-0.861,2.031,0.52,4.13,2.824,3.672c3.693-0.733,6.926-3.13,10.668-3.577C409.166,75.742,409.203,70.737,406.006,71.12
				L406.006,71.12z"/>
		</g>
	</g>
	
		<rect x="394.807" y="66.366" fill="#FFFFFF" stroke="#FFFFFF" stroke-width="2" stroke-miterlimit="10" width="31.322" height="14.17"/>
</g>
<g id="Ebene_3_Kopie" display="none">
</g>
<g id="Ebene_7">
	<path fill="#000100" d="M274.344,349.654c-29.52-0.741-46.412-33.279-54.955-47.625c-6.166-10.357-15.166-23.43-31.09-27.561
		c-10.604-2.75-24.756,3.518-30.929,6.977c-6.169,3.459-18.669,12.084-18.669,12.084s3.168-29.342,9.246-36.287
		c9.5-10.859,31.491-6.348,48.312,3.927c14.095,8.608,23.988,22.304,32.322,32.478c10.58,12.916,26.699,19.133,26.699,19.133
		c-4.105-4-9.242-11.228-7.303-21.667c1.781-9.583,8.309-13.583,16.697-19.597c2.295-1.644-0.898-28.266-2.998-41.105
		c-1.045-6.398-2.289-55.133-1.966-64.87s3.089-31.474,3.927-36.697c1.08-6.73-1.004-20.64-1.004-20.64
		c5.5,8.125,7.498,21.616,7.498,21.616c1.655-2.414,2.461-5.676,2.461-5.676c1.207,2.053,2.284,9.062,2.284,9.062
		c0.534-0.771,3.132-3.759,3.132-3.759c0.5,8.5,1.62,11.442,5.203,28.359c4.152,19.604,3.342,27.969,3.717,46.414
		c0.453,22.312-6.082,65.692-3.707,66.964c5.799,3.104,15.63,8.43,15.908,21.354c0.192,8.917-2.185,14.909-6.451,19.077
		c-0.405,0.396,16.842-5.084,27.422-18.001c8.334-10.173,21.182-27.345,35.275-35.954c16.822-10.273,34.699-11.608,48.727-4.362
		l2.551,4.704l-3.369-0.476c-14.029-7.246-23.217-7.021-40.039,3.255c-14.094,8.608-28.984,29.851-35.15,40.207
		C319.553,315.332,303.871,348.913,274.344,349.654L274.344,349.654z"/>
	<path fill-rule="evenodd" clip-rule="evenodd" fill="#000100" d="M413.756,239.945c-6.082-28.166-25.295-40.758-58.875-56.333
		c-25.332-11.75-45.289-11.543-55.705-8.028c-5.404,1.82-7.854,42.613-0.997,56.379c0.966,1.941,41.626-4.353,56.837,32.239
		c0,0,23.867-19.59,52.658-3.558c0,0-2.695-15.959-12.006-26.023C404.512,235.636,413.756,239.945,413.756,239.945z M319.76,225.379
		c-6.322-1.048-11.029-7.875-14.762-18.291c-6.482-18.072,4.615-21.281,19.762-20.143c10.75,0.809,18.381,2.909,18.381,19.465
		C343.141,223.143,330.322,227.129,319.76,225.379z"/>
	<path fill-rule="evenodd" clip-rule="evenodd" fill="#FFFFFF" d="M274.344,340.432c6.622,0,16.665-6.201,22.176-11.951
		c5.8-6.059,8.834-16.451,8.834-16.451s-11.051,8.961-14.406,9.875c-7.396,2.016-7.562-2.875-16.604-2.443
		c-6.828,0.325-9.016,5.714-18.057,3.381c-6.092-1.572-15.979-10.812-15.979-10.812s5.78,13.814,12.869,20.152
		C258.371,336.825,267.648,340.432,274.344,340.432z"/>
	<path fill-rule="evenodd" clip-rule="evenodd" fill="#000100" d="M220.494,189.16c7.022,0.752,20.654,14.78,19.154,26.582
		c-1.5,11.801-4.676,11.477-7.168,11.275c-9.25-0.75-15.581-4.83-20.644-11.518c-4.763-6.292-4.698-16.176-3.575-20.891
		C209.385,189.896,220.494,189.16,220.494,189.16z"/>
	<path fill-rule="evenodd" clip-rule="evenodd" fill="#FFFFFF" d="M217.188,196.031c1.895-1.479,7.246-2.719,9.357,0.004
		c2.112,2.721-1.005,6.342-3.093,7.692c-2.086,1.351-6.627,2.851-8.711-0.124C212.658,200.627,214.527,198.106,217.188,196.031z"/>
	<path fill-rule="evenodd" clip-rule="evenodd" fill="#000100" d="M325.6,185.756c-7.023,0.752-20.645,15.064-19.146,26.865
		s5.238,11.193,7.73,10.992c9.25-0.75,15.58-4.83,20.643-11.518c4.764-6.292,4.697-16.176,3.574-20.891
		C337.277,186.492,325.6,185.756,325.6,185.756z"/>
	<path fill-rule="evenodd" clip-rule="evenodd" fill="#FFFFFF" d="M326.605,191.723c2.199,0.295,6.475,3.023,6.045,6.174
		c-0.432,3.15-4.832,3.436-7.072,2.932c-2.238-0.504-6.162-2.529-5.547-5.824C320.648,191.707,323.518,191.31,326.605,191.723z"/>
	<path fill-rule="evenodd" clip-rule="evenodd" fill="#000100" d="M164.844,257.242c19.658-1.533,32.547,8.379,32.547,8.379
		c30.961-38.566,49.457-28.146,51.465-33.658c5.262-14.446,3.69-52.931-1.734-54.67c-11.916-3.822-16.703-4.121-52.014,6.986
		c-35.309,11.107-74.431,56-69.63,84.666L164.844,257.242z M203.028,210.098c0-16.555,7.631-18.656,18.381-19.464
		c15.147-1.139,26.258,2.069,19.771,20.142c-3.739,10.416-8.447,17.244-14.771,18.291
		C215.847,230.816,203.028,226.83,203.028,210.098z"/>
	<path fill-rule="evenodd" clip-rule="evenodd" fill="#FFFFFF" d="M274.593,286.684c-2.584,0.461-5.182,0.859-7.747,1.406
		c-1.566,0.334-2.822,1.18-2.987,2.979c-0.146,1.592,0.953,3.225,2.625,3.924c0.587,0.244,1.211,0.521,1.828,0.549
		c2.083,0.086,2.595,1.639,2.98,3.189c0.378,1.52-0.149,2.867-1.439,3.789c-2.69,1.92-5.777,2.58-8.824,1.5
		c-1.396-0.494-2.548-2.119-3.444-3.473c-1.221-1.844-1.517-4.066-1.15-6.236c0.629-3.74,1.482-7.381,5.388-9.311
		c1.491-0.738,2.779-1.873,4.213-2.74c0.737-0.445,1.563-0.834,2.4-1.01c3.521-0.746,7.026-1.307,10.49,0.432
		c1.984,0.994,4.155,1.615,6.145,2.6c4.928,2.441,6.878,9.598,4.621,14.609c-1.272,2.828-6.265,5.107-9.181,4.184
		c-2.161-0.686-3.095-2.914-2.101-5.529c0.342-0.898,1.169-1.639,1.861-2.371c0.425-0.449,1.012-0.748,1.527-1.113
		c1.193-0.842,2.021-1.912,1.594-3.439c-0.434-1.551-1.472-2.697-3.059-3.082c-1.308-0.316-2.676-0.393-4.021-0.547
		c-0.554-0.064-1.116-0.057-1.675-0.082C274.622,286.834,274.607,286.76,274.593,286.684z"/>
	<g>
		<path fill-rule="evenodd" clip-rule="evenodd" fill="#000100" d="M116.615,59.052c-1.295,0.262-2.488,0.747-3.481,1.473
			c1.315,0.048,2.542,0.183,3.925,0.526L116.615,59.052z"/>
		<path fill-rule="evenodd" clip-rule="evenodd" fill="#000100" d="M431.34,72.825c1.137-2.65,0.547-5.024-0.355-7.701l-4.455,1.719
			c-1.047,1.117-2.277,1.699-3.494,2.315c-7.615,3.858-15.289,7.61-22.82,11.626c-7.865,4.193-14.756,9.772-21.457,15.614
			c-4.033,3.515-8.252,6.822-12.465,10.122c-6.197,4.855-11.422,10.61-16.027,16.951c-1.949,2.689-4.299,5.136-5.211,8.558
			c0.086,0.096,0.209,0.379,0.395,0.426c2.363,0.608,4.021,2.258,5.602,3.93c2.307,2.438,4.707,4.84,6.643,7.56
			c2.723,3.824,5.357,7.771,7.48,11.945c2.85,5.604,5.398,11.39,7.646,17.261c1.414,3.7,2.215,7.668,2.977,11.576
			c0.746,3.83,1.123,7.734,1.594,11.615c0.131,1.092,0.02,2.215,0.02,3.701c-0.002-0.002-0.004-0.002-0.006-0.004
			c6.744,8.084,12.748,17.41,23.934,17.406c-0.635-0.684-1.262-1.371-1.926-2.031c-2.383-2.365-4.576-4.908-7.609-6.48
			c-0.959-0.498-1.484-1.297-1.461-2.293c0.094-4.037-0.195-8.052,1.889-11.889c2.26-4.16,4.707-7.961,9.084-10.146
			c0.488-0.244,0.914-0.607,1.348-0.901c-0.557-1.457-0.57-1.401-1.674-1.694c-2.373-0.632-4.727-1.326-7.367-2.072
			c1.131-1.645,2.006-3.066,3.033-4.367c1.018-1.289,2.189-2.457,3.344-3.733c-0.934-1.49-2.502-1.089-3.717-1.376
			c-1.51-0.356-2.438-1.155-2.92-2.518c-0.562-1.592-0.805-3.197-0.428-4.928c0.676-3.105,1.975-5.875,3.883-8.396
			c0.346-0.457,0.504-1.057,0.953-2.037c-2.205,0.17-4.037,0.906-5.693-0.273c-1.537-1.096-3.137-2.105-4.705-3.151
			c4.297-3.862,8.412-7.503,12.463-11.212c5.268-4.826,9.932-10.18,13.631-16.311c1.48-2.452,2.617-5.113,4.096-7.572
			c3.084-5.133,5.85-10.429,8.131-15.956c1.43-3.462,2.646-7.025,3.74-10.61c0.711-2.334,1.488-4.758,0.424-7.252
			c-0.145-0.338-0.139-0.796-0.057-1.167C430.266,76.978,430.504,74.771,431.34,72.825z"/>
		<path fill-rule="evenodd" clip-rule="evenodd" fill="#000100" d="M145.279,222.395c-1.688-3.48-3.189-6.746-3.031-10.528
			c0.057-1.357,0.081-2.725-0.011-4.078c-0.614-9.055,1.983-17.363,5.806-25.401c2.369-4.98,4.666-9.996,7.075-14.955
			c0.692-1.426,1.618-2.746,2.517-4.059c4.018-5.866,9.187-10.578,14.672-15.047c4.27-3.479,8.184-7.398,12.251-11.125
			c0.87-0.797,1.466-1.729,1.097-2.966c-0.7-2.349-1.342-4.722-2.203-7.011c-0.526-1.399-1.381-2.682-2.146-3.982
			c-2.427-4.117-4.763-8.297-7.364-12.307c-1.73-2.666-3.809-5.113-5.812-7.593c-2.355-2.916-4.676-5.875-7.231-8.61
			c-3.269-3.5-6.833-6.723-10.134-10.193c-5.877-6.178-12.861-10.962-19.748-15.862c-2.335-1.661-4.835-3.116-7.365-4.465
			c-1.529-0.815-3.268-1.23-4.898-1.859c-0.649-0.25-1.263-0.594-2.076-0.984c0.127-0.118,0.254-0.22,0.383-0.318
			c-1.383-0.343-2.609-0.478-3.925-0.526c-0.587,0.428-1.103,0.939-1.528,1.54c0.281,2.058,0.578,3.939,0.784,5.831
			c0.163,1.505,0.141,3.032,0.333,4.532c0.718,5.615,1.482,11.225,2.244,16.835c0.893,6.582,2.352,13.042,4.629,19.28
			c2.551,6.991,5.743,13.674,9.717,19.997c2.718,4.322,5.042,8.896,8.462,12.748c1.112,1.252,2.269,2.465,3.394,3.707
			c1.957,2.158,1.326,5.5-1.274,6.714c-1.273,0.595-2.565,1.151-4.073,1.825c0.59,1.047,1.099,1.928,1.586,2.82
			c1.9,3.478,2.261,7.211,0.064,10.46c-2.934,4.339-7.125,7.21-12.491,8.019c-0.427,0.063-0.827,0.312-1.511,0.584
			c0.514,0.814,0.829,1.552,1.347,2.096c2.497,2.625,3.609,5.834,3.652,9.34c0.034,2.703-0.894,5.227-3.129,6.969
			c-2.501,1.95-4.922,4.066-8.157,4.812c-0.426,0.099-0.752,0.619-1.07,0.897c2.215,1.917,4.256,3.655,6.267,5.429
			c3.454,3.043,6.438,6.426,7.935,10.91c0.705,2.115,1.615,4.162,2.299,6.283c0.915,2.84,1.197,5.774,0.985,8.759
			c-0.089,1.247-0.188,2.507-0.097,3.748c0.051,0.712-0.092,1.236-0.42,1.802C138.439,233.824,141.927,227.588,145.279,222.395z"/>
		<path fill-rule="evenodd" clip-rule="evenodd" fill="#000100" d="M247.979,245.966c-0.76,0.687-1.183,1.391-1.734,1.514
			c-4.646,1.035-8.793,3.243-12.984,5.358c-0.213,0.107-0.402,0.266-0.621,0.359c-0.834,0.357-1.597,0.283-2.062-0.568
			c-0.45-0.824-0.227-1.611,0.563-2.07c1.444-0.842,2.903-1.682,4.433-2.35c2.63-1.147,5.297-2.221,7.994-3.201
			c0.866-0.314,1.887-0.37,2.812-0.287C246.846,244.763,247.262,245.381,247.979,245.966z"/>
		<path fill-rule="evenodd" clip-rule="evenodd" fill="#000100" d="M302.893,242.309c3.041,0.348,6.24,1.173,9.133,2.987
			c0.402,0.252,0.781,0.558,1.123,0.888c0.652,0.633,0.84,1.422,0.262,2.145c-0.592,0.74-1.365,0.584-2.154,0.165
			c-1.393-0.74-2.809-1.433-4.23-2.112c-2.1-1.005-4.338-0.863-6.571-0.729c-0.478,0.027-0.957,0.042-1.431,0.102
			c-0.986,0.123-1.776-0.125-2.041-1.174c-0.21-0.832,0.525-1.615,1.78-1.821C300.019,242.553,301.296,242.477,302.893,242.309z"/>
		<path fill-rule="evenodd" clip-rule="evenodd" fill="#000100" d="M298.548,250.287c4.2,0.43,8.288,0.98,12.208,2.393
			c0.369,0.133,0.869,0.285,1.012,0.574c0.256,0.516,0.488,1.203,0.34,1.705c-0.105,0.361-0.863,0.785-1.295,0.748
			c-1.016-0.082-2.004-0.475-3.018-0.652c-3.355-0.59-6.722-1.141-10.089-1.705c-0.391-0.064-0.906,0.031-1.151-0.188
			c-0.439-0.389-1.001-0.975-0.977-1.449c0.022-0.451,0.66-1.033,1.16-1.252C297.287,250.221,297.988,250.326,298.548,250.287z"/>
		<path fill-rule="evenodd" clip-rule="evenodd" fill="#000100" d="M245.096,253.838c0.879,0.18,1.431,0.15,1.782,0.402
			c0.404,0.287,0.92,0.867,0.864,1.242c-0.078,0.508-0.621,1.314-1.018,1.346c-4.143,0.34-7.603,2.748-11.531,3.701
			c-0.955,0.232-1.797,0.189-2.18-0.842c-0.342-0.918,0.182-1.572,0.99-1.898c2.062-0.83,4.143-1.627,6.237-2.373
			C241.951,254.809,243.693,254.291,245.096,253.838z"/>
	</g>
	<path fill-rule="evenodd" clip-rule="evenodd" fill="none" stroke="#000000" stroke-width="5" stroke-miterlimit="10" d="
		M111.605,62.064c7.156-3.432,42.901-11.559,64.693,6.934c21.791,18.493,25.631,30.094,30.166,37.993c0,0,18-9.892,21.754-16.188
		c0,0,4.205,8.855,18.262,8.121c10.533-0.55,18.359-5.433,19.391-12.097c0,0,5.731,7.842,12.719,8.039
		c8.875,0.25,15.004-5,15.826-11.271c0,0,6.496,16.333,29.42,18.146c2.25,0.178,39.969-44.938,106.531-35.188"/>
	<path fill-rule="evenodd" clip-rule="evenodd" d="M167.285,173.611l11.377,7.744c16.352-22.372,38.557-26.252,61.104-21.76
		l0.121-15.172C222.053,136.465,184.123,140.938,167.285,173.611z"/>
	<g>
		<g>
			<path d="M226.654,280.562c3.792,5.259,7.709,10.66,12.342,15.213c1.73,1.701,4.393-0.957,2.66-2.66
				c-4.411-4.336-8.144-9.445-11.754-14.453C228.498,276.715,225.232,278.59,226.654,280.562L226.654,280.562z"/>
		</g>
	</g>
	<g>
		<g>
			<path d="M230.076,270.803c3.793,5.259,7.709,10.66,12.342,15.213c1.731,1.701,4.393-0.957,2.66-2.66
				c-4.41-4.336-8.143-9.445-11.753-14.453C231.92,266.955,228.654,268.83,230.076,270.803L230.076,270.803z"/>
		</g>
	</g>
	<g>
		<g>
			<path d="M304.814,297.648c5.193-3.643,8.654-9.802,12.336-14.84c1.43-1.955-1.826-3.823-3.238-1.893
				c-3.271,4.479-6.369,10.256-10.986,13.494C300.962,295.786,302.832,299.039,304.814,297.648L304.814,297.648z"/>
		</g>
	</g>
	<g>
		<g>
			<path d="M303.906,285.971c5.193-3.642,8.652-9.801,12.334-14.839c1.428-1.956-1.828-3.823-3.238-1.893
				c-3.271,4.478-6.369,10.256-10.986,13.493C300.051,284.109,301.922,287.361,303.906,285.971L303.906,285.971z"/>
		</g>
	</g>
	<path fill-rule="evenodd" clip-rule="evenodd" d="M363.301,164.812l-9.5,11.434c-16.352-22.371-37.541-20.858-60.082-16.366
		l-0.972-16.591C310.576,135.33,344.84,135.759,363.301,164.812z"/>
</g>
</svg>
